<svg version="1.1" id="Layer_1" xmlns="http://www.w3.org/2000/svg" xmlns:xlink="http://www.w3.org/1999/xlink" x="0px" y="0px"
	 width="100%" viewBox="0 0 1080 1080" enable-background="new 0 0 1080 1080" xml:space="preserve">
<path fill="#000000" opacity="1.000000" stroke="none" 
	d="
M709.000000,1081.000000 
	C472.693878,1081.000000 236.887756,1081.000000 1.040821,1081.000000 
	C1.040821,721.068787 1.040821,361.137512 1.040821,1.103134 
	C360.889648,1.103134 720.779358,1.103134 1080.834473,1.103134 
	C1080.834473,360.999939 1080.834473,720.999939 1080.834473,1081.000000 
	C957.137024,1081.000000 833.318542,1081.000000 709.000000,1081.000000 
M566.151489,220.055756 
	C570.254883,218.934769 571.761230,215.968216 570.878662,212.157089 
	C570.442566,210.274109 569.009155,208.163681 567.401733,207.110428 
	C564.491333,205.203445 561.081604,205.879852 559.256897,208.714493 
	C557.380066,211.630127 556.833923,215.083801 559.647339,218.264755 
	C560.517029,219.248001 561.246094,221.147141 560.905884,222.289246 
	C556.292786,237.775208 551.479919,253.201660 546.326111,269.907898 
	C542.602844,259.785645 539.316650,250.851654 535.954773,241.711807 
	C539.837097,239.604660 542.101929,236.601074 540.536194,232.071625 
	C539.210693,228.237045 535.803650,227.259415 532.512024,228.183426 
	C530.411987,228.772949 527.824524,230.869720 527.207947,232.839264 
	C525.834656,237.226028 528.270264,240.273926 532.515259,241.535858 
	C530.037781,250.407333 527.608643,259.105347 524.901611,268.798706 
	C515.181519,254.236511 506.067139,240.581696 497.037292,227.053543 
	C497.174072,226.663788 497.194794,226.491882 497.283295,226.368683 
	C500.846405,221.408096 500.896271,217.542953 497.420990,215.160187 
	C494.342377,213.049393 489.059265,213.785751 487.149414,216.591812 
	C484.546600,220.416107 485.974762,224.159195 490.821075,227.519791 
	C491.972260,228.318085 492.813232,230.288315 492.896881,231.770279 
	C493.187286,236.917679 493.110565,242.087357 493.121033,247.248672 
	C493.141632,257.410004 493.127075,267.571442 493.127075,278.140686 
	C486.135101,272.157410 479.231903,266.250092 472.389282,260.394592 
	C472.850922,259.419006 473.284302,258.705627 473.538116,257.933228 
	C474.993896,253.502899 472.984985,249.620239 468.563965,248.239655 
	C465.644745,247.328079 460.741272,250.257797 460.025635,253.341171 
	C459.017731,257.684021 461.556183,260.982086 466.333221,262.094940 
	C467.639404,262.399231 469.180237,263.540771 469.757538,264.717804 
	C470.741333,266.723724 471.092804,269.050964 471.629761,271.262665 
	C473.165802,277.589661 474.661530,283.926422 476.462646,291.472473 
	C462.847626,280.503235 450.332733,270.462524 437.901855,260.318817 
	C436.982391,259.568481 436.078888,258.026337 436.171906,256.938110 
	C436.631897,251.555679 434.574402,248.162537 430.024658,248.059113 
	C426.496979,247.978897 423.461182,249.175323 423.013153,253.345947 
	C422.384918,259.194244 424.542358,261.563843 430.209991,262.098724 
	C431.883881,262.256714 434.061401,263.066132 434.976959,264.326202 
	C442.461639,274.627411 449.733185,285.084412 457.004211,295.539490 
	C460.851532,301.071625 464.568787,306.694214 468.316284,312.233826 
	C406.684448,356.992645 379.554108,436.411713 408.189362,512.850098 
	C421.405365,548.128784 444.507660,576.111206 476.654541,596.065002 
	C513.055603,618.659363 552.641785,626.240051 594.989380,620.023926 
	C655.181946,611.188477 708.705933,565.610352 726.711487,512.178101 
	C716.688904,512.178101 706.726440,512.178101 696.779480,512.178101 
	C695.826538,513.712891 694.847961,515.288940 693.791931,516.989685 
	C690.814392,513.750549 687.998352,510.970856 685.506165,507.926117 
	C675.538086,495.747833 665.374268,483.712860 655.846375,471.195892 
	C645.566528,457.691162 635.153137,444.180115 626.229980,429.784241 
	C618.898560,417.956360 610.265442,416.349457 600.227234,418.973114 
	C591.602722,421.227234 583.174133,424.222717 574.590820,426.649811 
	C572.866638,427.137360 570.228760,427.285553 569.048523,426.321442 
	C562.796692,421.214600 556.976746,415.583740 550.817993,410.357269 
	C539.898987,401.090973 528.017029,393.431976 514.051697,389.519989 
	C504.309052,386.790924 494.566132,386.895233 486.416229,393.280243 
	C470.919434,405.421082 455.988800,418.282135 440.710815,430.706085 
	C435.851501,434.657623 430.636383,438.171539 424.722534,442.519104 
	C425.294800,439.200256 425.674164,437.139099 426.000702,435.069641 
	C426.357117,432.810760 426.661652,430.543732 426.994019,428.281036 
	C431.004272,400.980011 442.964386,377.301239 460.941986,356.780273 
	C474.140472,341.714600 490.153717,330.168304 508.519806,321.685760 
	C537.656250,308.228851 567.821289,305.627167 598.836487,312.165863 
	C622.078064,317.065704 642.802490,327.727203 660.660156,343.342804 
	C674.869690,355.768311 686.680664,370.306183 695.136475,387.376831 
	C695.846924,388.811249 697.438416,390.789886 698.672791,390.828064 
	C708.038452,391.117828 717.417175,390.986572 728.213074,390.986572 
	C695.864807,319.876678 642.421387,282.621429 565.337036,280.282532 
	C565.337036,260.273468 565.337036,240.304153 566.151489,220.055756 
M565.574097,396.137360 
	C578.053101,400.779602 588.207520,397.247406 595.402954,388.041626 
	C601.836548,379.810486 601.472046,366.906342 595.012268,358.452759 
	C589.316162,350.998657 581.831726,348.522339 572.711548,348.926300 
	C559.162964,349.526367 549.617249,361.689056 550.235596,374.448669 
	C550.698059,383.992401 555.289307,391.943115 565.574097,396.137360 
M543.064026,665.592590 
	C537.202881,655.960754 527.857788,651.966187 517.391907,652.286621 
	C500.231628,652.812012 487.263763,664.474243 487.951324,682.819397 
	C488.357147,693.647217 492.710907,702.281250 502.145020,707.415588 
	C512.391968,712.992249 523.316650,713.165466 533.408325,706.934631 
	C547.117737,698.469971 550.906372,682.156677 543.064026,665.592590 
M824.959717,668.173157 
	C819.683594,669.474365 814.407532,670.775574 808.991028,672.111389 
	C808.991028,666.733154 809.059143,660.112488 808.935059,653.495361 
	C808.909485,652.129333 808.233337,649.622925 807.747009,649.595459 
	C802.641602,649.307861 797.513855,649.417786 792.392334,649.417786 
	C797.999939,654.278809 797.999939,654.278809 798.000000,662.773804 
	C798.000000,673.271606 798.082947,683.770386 797.965881,694.266907 
	C797.905090,699.712524 800.158020,706.168274 792.496338,709.143250 
	C799.501770,709.143250 806.507141,709.143250 813.739319,709.143250 
	C811.808411,707.025818 809.330750,705.577148 809.232056,703.981384 
	C808.801392,697.010742 808.795715,689.983643 809.157837,683.004089 
	C809.426270,677.831543 813.276855,674.188354 817.617371,674.037964 
	C821.559692,673.901489 824.209595,676.695190 824.804382,682.584778 
	C825.254578,687.040955 824.991028,691.572144 824.992004,696.069946 
	C824.992981,700.804749 825.983643,705.922241 819.549194,708.331238 
	C819.835999,708.662598 820.122803,708.993958 820.409607,709.325317 
	C827.226318,709.325317 834.043030,709.325317 841.363892,709.325317 
	C840.761719,708.386475 840.455139,707.444763 840.100830,707.426575 
	C835.717285,707.200378 835.928345,704.188416 835.974609,701.070496 
	C836.061279,695.239746 836.110962,689.403564 835.958496,683.575317 
	C835.739746,675.214783 832.668518,670.790588 824.959717,668.173157 
M651.069641,672.466064 
	C653.323669,661.549744 647.782837,655.200378 639.348450,654.298889 
	C628.006653,653.086731 616.503906,653.339600 605.067261,653.133362 
	C604.155090,653.116943 603.219116,654.418030 602.294250,655.106873 
	C603.285339,655.728882 604.327332,656.949890 605.258789,656.870728 
	C609.633179,656.499023 610.069824,658.956360 610.040405,662.414307 
	C609.932678,675.054016 609.833801,687.698547 610.086975,700.334106 
	C610.178772,704.914978 609.414551,707.801147 604.024048,707.191711 
	C603.504272,707.132935 602.881836,707.982239 601.041199,709.352051 
	C611.782410,709.352051 621.042236,709.352051 631.674866,709.352051 
	C629.848694,708.046814 629.167908,707.154785 628.619812,707.230042 
	C621.731750,708.175842 621.537659,703.902771 621.976746,698.982544 
	C622.124023,697.332397 621.998047,695.658142 622.000305,693.994873 
	C622.012207,685.190063 621.710999,686.474243 629.646240,685.828491 
	C638.506470,685.107605 648.012512,684.442932 651.069641,672.466064 
M403.939484,673.358398 
	C404.199310,673.762512 404.764740,674.259277 404.674347,674.557129 
	C402.294220,682.401123 399.846375,690.224487 397.410065,698.051392 
	C397.022949,698.060364 396.635834,698.069275 396.248749,698.078247 
	C393.558350,690.024536 390.867981,681.970825 388.192444,673.961609 
	C390.027374,673.137146 391.405487,672.517944 392.783569,671.898804 
	C392.715332,671.499573 392.647064,671.100403 392.578796,670.701172 
	C387.238770,670.701172 381.898743,670.701172 375.304596,670.701172 
	C382.191833,680.982849 375.271576,689.115601 372.257965,697.984375 
	C369.544250,690.041138 366.830505,682.097900 364.080902,674.049683 
	C365.849152,673.211914 367.322144,672.514038 368.795105,671.816162 
	C368.705902,671.477966 368.616730,671.139832 368.527527,670.801636 
	C361.835785,670.801636 355.144012,670.801636 349.486633,670.801636 
	C351.354706,674.281494 353.429688,677.363403 354.738831,680.741943 
	C357.853058,688.779358 360.623840,696.950500 363.493896,705.081543 
	C364.597900,708.209290 365.974640,710.929199 369.913361,710.958069 
	C374.316528,710.990295 373.985138,707.156067 374.901154,704.607666 
	C376.927338,698.970764 378.592865,693.204285 380.837341,686.129456 
	C381.982330,689.022705 382.552704,690.362000 383.046143,691.729065 
	C384.847687,696.720459 386.314362,701.866638 388.564484,706.645081 
	C389.439331,708.503052 391.946442,710.374939 393.926819,710.643799 
	C395.165222,710.811951 397.410706,708.252563 398.152008,706.477600 
	C400.064392,701.898254 401.211914,697.005493 402.994537,692.364624 
	C405.841370,684.953064 405.344757,675.904602 414.805206,670.550171 
	C409.025909,670.550171 404.782898,670.550171 400.539886,670.550171 
	C400.430023,670.988220 400.320160,671.426270 400.210297,671.864319 
	C401.215698,672.284241 402.221130,672.704224 403.939484,673.358398 
M234.123184,656.160400 
	C242.635208,655.069153 248.584930,658.523193 252.115723,666.288147 
	C252.734421,667.648804 253.263123,669.082825 254.100815,670.298645 
	C254.563156,670.969727 255.556580,671.537354 256.358765,671.608582 
	C256.805359,671.648193 257.774231,670.581787 257.785828,669.999451 
	C257.896210,664.465515 257.851654,658.928406 257.851654,653.392212 
	C257.388855,653.245239 256.926086,653.098206 256.463287,652.951233 
	C255.223511,654.003418 253.983734,655.055603 252.666138,656.173889 
	C246.115952,653.110107 239.405441,651.974426 232.029984,652.786316 
	C219.656036,654.148438 211.340607,660.622559 208.092789,672.105835 
	C204.800217,683.747253 205.901520,695.382202 215.757767,704.141479 
	C225.311203,712.631531 236.574249,712.200623 248.190216,709.489685 
	C250.850006,708.868958 253.778168,709.398254 257.279938,709.398254 
	C257.279938,704.518372 257.279938,698.438721 257.279938,692.359131 
	C256.720673,692.179016 256.161377,691.998962 255.602097,691.818909 
	C254.631531,693.714172 253.709625,695.636292 252.681335,697.499695 
	C249.462204,703.333252 244.992126,707.740356 237.981216,707.887024 
	C231.099701,708.031067 225.694351,704.956543 223.184906,698.268005 
	C219.210754,687.675537 218.787094,676.926208 222.950806,666.254089 
	C224.838913,661.414612 228.025314,657.733643 234.123184,656.160400 
M452.437927,669.807190 
	C444.745911,665.892883 438.426483,668.765991 432.720612,674.284973 
	C430.922272,669.480713 419.777679,668.130554 414.944885,672.273865 
	C422.547607,672.173340 420.962738,677.362122 420.992554,681.621094 
	C421.025208,686.286072 421.065857,690.952576 420.982208,695.616333 
	C420.891388,700.679810 422.771790,706.641052 414.294922,708.159180 
	C414.671448,708.547424 415.048004,708.935730 415.424530,709.323975 
	C422.570648,709.323975 429.716797,709.323975 436.862946,709.323975 
	C428.596405,705.969971 432.879181,698.936646 432.049133,693.553955 
	C431.748077,691.601746 431.803040,689.535522 432.063873,687.570190 
	C432.410126,684.961731 432.740082,682.240784 433.754272,679.856201 
	C435.425537,675.926636 438.299835,673.171753 443.066681,674.109070 
	C447.594269,674.999329 447.694519,678.903625 447.913300,682.304077 
	C448.201599,686.784424 448.041534,691.297302 447.987122,695.795105 
	C447.928986,700.598694 449.399658,705.978821 442.476593,708.368958 
	C442.791321,708.696777 443.106049,709.024658 443.420776,709.352478 
	C450.388367,709.352478 457.355957,709.352478 465.047363,709.352478 
	C459.000488,704.538818 459.001831,704.538818 458.999573,697.605713 
	C458.997833,692.274048 459.113190,686.938782 458.951782,681.611877 
	C458.810333,676.944763 457.368317,672.788635 452.437927,669.807190 
M732.844421,680.186096 
	C732.896240,685.680420 733.001343,691.174988 732.983459,696.669067 
	C732.968811,701.184814 734.319031,706.279602 727.296753,708.138367 
	C727.669861,708.521301 728.043030,708.904297 728.416138,709.287231 
	C735.366394,709.287231 742.316650,709.287231 749.946228,709.287231 
	C749.080872,708.279724 748.700195,707.435364 748.289978,707.420715 
	C744.037109,707.269348 743.884033,704.527588 743.955750,701.246094 
	C744.101440,694.587219 744.173401,687.916199 743.939087,681.262085 
	C743.587158,671.267090 735.308960,665.617126 725.870056,669.018921 
	C722.887390,670.093933 720.276733,672.201416 717.492981,673.838074 
	C715.913025,669.428101 704.600037,668.096558 699.872742,672.445129 
	C707.433533,671.985474 705.957764,677.041443 705.991272,681.174500 
	C706.029114,685.837769 706.045532,690.502075 705.987793,695.164978 
	C705.923096,700.388489 707.800537,706.448242 699.404053,708.265564 
	C699.744324,708.625427 700.084595,708.985229 700.424805,709.345093 
	C707.574097,709.345093 714.723389,709.345093 721.872681,709.345093 
	C714.512878,706.590027 717.360779,700.457947 717.029602,695.530334 
	C716.862488,693.043396 716.763062,690.505554 717.069702,688.045166 
	C717.434692,685.116821 717.844116,682.061523 719.007141,679.398926 
	C720.438354,676.122437 722.877014,673.777771 727.096436,673.955750 
	C730.817322,674.112671 731.726501,676.596497 732.844421,680.186096 
M660.153198,690.498535 
	C654.495728,694.931335 653.069092,702.595764 657.003845,707.418152 
	C661.505798,712.935730 672.185364,712.106873 680.148499,705.621826 
	C684.338440,710.944946 689.235046,712.636047 694.181824,710.287720 
	C698.178589,708.390442 698.430908,705.048889 697.362305,699.714417 
	C695.384521,702.880615 694.110291,704.920471 692.836121,706.960388 
	C692.384094,706.829285 691.932068,706.698181 691.479980,706.567078 
	C691.320801,705.016724 691.043762,703.467834 691.024170,701.915710 
	C690.963257,697.091858 691.012146,692.266663 690.996521,687.442078 
	C690.946167,671.927795 683.888489,666.021973 667.025330,668.830505 
	C663.156616,669.474854 659.581848,670.522827 657.777405,674.577881 
	C656.466919,677.522583 656.993896,680.371094 659.928589,681.095093 
	C661.929016,681.588562 664.766113,680.318481 666.667236,679.016479 
	C667.944153,678.142090 668.095581,675.750305 669.002014,674.182800 
	C670.921692,670.863403 674.113281,670.154968 676.205750,673.114197 
	C678.001038,675.653320 678.322510,679.335693 678.934937,682.580627 
	C679.514526,685.651306 678.032043,686.773926 674.783936,687.125732 
	C670.077454,687.635498 665.471558,689.074463 660.153198,690.498535 
M315.803375,710.058105 
	C329.479340,714.015015 340.544647,708.275513 344.351166,695.250549 
	C346.873199,686.620911 343.536224,676.036682 337.036163,672.048950 
	C327.160645,665.990417 316.195801,667.163147 308.453644,673.848999 
	C299.129608,681.900940 298.668457,703.633972 315.803375,710.058105 
M553.776245,709.390930 
	C562.322937,710.520081 570.812439,709.986572 579.357727,708.794678 
	C577.900208,707.532166 576.395142,707.024475 574.896118,707.041809 
	C572.187012,707.073242 570.962280,706.061768 570.989258,703.241943 
	C571.073669,694.421265 571.069458,685.598877 570.991028,676.778076 
	C570.966187,673.975952 572.178589,672.949829 574.895630,672.971436 
	C577.138062,672.989319 579.383667,672.606995 582.112061,672.357788 
	C581.330872,671.088562 581.218811,670.654663 580.988953,670.579163 
	C580.217468,670.325623 579.411743,670.107239 578.605347,670.039551 
	C570.670166,669.373474 570.662781,669.382568 571.022827,661.450317 
	C571.067871,660.458374 570.940002,659.310669 571.387451,658.512878 
	C572.677673,656.212402 574.221375,654.054138 575.665466,651.839966 
	C577.437622,653.541321 579.094360,655.388977 581.014343,656.902832 
	C582.926208,658.410278 584.975403,660.013062 587.228638,660.676392 
	C588.052307,660.918884 590.785767,658.414307 590.645874,657.454712 
	C590.293884,655.040283 589.441833,651.751221 587.657776,650.653625 
	C578.927002,645.282654 563.736938,647.792786 560.975220,660.708435 
	C559.897095,665.750366 559.910278,671.183838 552.620789,670.962830 
	C552.577209,670.961487 552.524536,671.261475 552.238647,672.201782 
	C553.580444,672.479004 554.865417,672.983948 556.139709,672.958435 
	C558.880676,672.903503 560.041870,674.008484 560.011353,676.794678 
	C559.921814,684.949402 560.222717,693.119202 559.782654,701.251282 
	C559.678101,703.182312 557.345032,705.047058 555.894226,706.825745 
	C555.260620,707.602539 554.267456,708.086060 553.776245,709.390930 
M846.002563,692.278931 
	C846.440308,702.885071 853.620178,710.564575 863.493164,710.986572 
	C875.656738,711.506531 882.269348,707.938049 883.406494,698.621460 
	C880.817200,700.972961 879.159180,702.447449 877.535400,703.958740 
	C870.381897,710.616638 862.414795,708.650940 859.328979,699.431458 
	C858.857056,698.021545 858.524719,696.558594 858.216187,695.101440 
	C857.471436,691.584412 858.565430,689.955261 862.524292,689.914429 
	C868.131897,689.856567 873.759399,689.367432 879.328308,688.665100 
	C883.751831,688.107300 885.850098,684.855713 884.801758,680.801025 
	C883.990601,677.663391 882.343201,673.937866 879.859680,672.187500 
	C872.425537,666.948120 864.025269,666.337646 855.898132,670.671814 
	C847.727112,675.029236 845.453552,682.624329 846.002563,692.278931 
M770.347107,671.978699 
	C777.349426,670.024597 780.573975,674.829407 783.303894,680.519287 
	C783.678589,680.193237 784.053284,679.867126 784.427979,679.541077 
	C784.427979,675.945679 784.427979,672.350220 784.427979,668.940247 
	C781.984314,668.940247 779.784302,668.923523 777.584778,668.943787 
	C773.180908,668.984253 768.714417,668.601868 764.389893,669.213989 
	C759.424561,669.916748 755.866028,672.927490 755.086914,678.207214 
	C754.285645,683.636414 756.469788,687.483643 761.796570,690.350342 
	C765.452087,692.317627 769.611694,693.610046 772.755859,696.173340 
	C774.827637,697.862427 776.757446,701.481750 776.368774,703.844971 
	C776.087219,705.556519 771.991760,707.526428 769.430542,707.795288 
	C763.887268,708.377258 761.141602,705.507141 758.940430,698.684143 
	C758.645996,697.771545 757.702515,697.068298 757.059570,696.268127 
	C756.415283,696.879822 755.238464,697.470154 755.212952,698.106628 
	C755.045471,702.282166 755.126709,706.467590 755.126709,710.396423 
	C757.897400,710.199402 759.593262,709.908264 761.270386,709.992004 
	C766.050659,710.230713 770.841492,711.053284 775.594604,710.851807 
	C782.669495,710.552063 786.731934,706.289978 787.025513,700.166260 
	C787.294373,694.558105 784.980957,690.609558 780.068420,688.054138 
	C776.242126,686.063721 772.193848,684.387756 768.670349,681.954895 
	C763.865234,678.637024 763.453674,674.782898 770.347107,671.978699 
M272.547302,710.000000 
	C277.684418,710.000000 282.821533,710.000000 287.958649,710.000000 
	C287.995636,709.300537 288.032623,708.601135 288.069580,707.901672 
	C286.332245,707.596008 284.527100,707.488159 282.878723,706.922974 
	C281.529663,706.460449 279.324677,705.504944 279.283264,704.678650 
	C278.851440,696.060181 278.169769,687.339966 281.547791,679.076904 
	C283.476593,674.358765 285.120483,674.470581 288.897705,678.050781 
	C290.501068,679.570496 293.982727,680.924438 295.562012,680.166992 
	C297.306000,679.330627 298.634735,676.018860 298.726471,673.728516 
	C298.860413,670.385132 296.110138,669.319458 292.908691,668.952332 
	C287.205200,668.298340 283.300598,671.345764 279.748047,675.009094 
	C278.971954,673.224792 278.427765,670.568481 277.695068,670.515381 
	C272.618195,670.147583 267.502075,670.321533 262.398590,670.321533 
	C267.998810,675.072205 267.999023,675.072205 267.999908,681.843750 
	C268.000397,685.510132 268.209808,689.191284 267.951874,692.839417 
	C267.543427,698.615784 270.835815,705.744934 261.463013,708.499512 
	C261.792572,708.999695 262.122162,709.499817 262.451721,710.000000 
	C265.492310,710.000000 268.532898,710.000000 272.547302,710.000000 
M905.999939,697.310608 
	C906.003540,690.661377 906.109802,684.009888 905.966248,677.363831 
	C905.897339,674.172607 907.050171,672.827393 910.306396,672.962708 
	C913.064148,673.077209 915.839417,672.770508 918.606934,672.650269 
	C918.624695,671.986816 918.642395,671.323303 918.660156,670.659851 
	C916.676514,670.440002 914.655151,669.864197 912.716553,670.069580 
	C907.689941,670.602234 905.211304,669.028442 905.891724,663.549194 
	C906.058960,662.202881 905.334778,659.881714 904.349976,659.410828 
	C900.712036,657.671143 895.063049,661.485962 895.066284,665.619751 
	C895.068787,668.778137 894.036560,670.258606 890.766907,670.096741 
	C889.964844,670.057068 889.127258,670.732300 887.653320,671.354370 
	C888.898682,672.124939 889.555176,672.888000 890.141357,672.837402 
	C894.744934,672.439514 895.168152,675.139038 895.049805,678.766663 
	C894.860229,684.578552 894.766296,690.414673 895.097961,696.213867 
	C895.273071,699.274963 896.066772,702.429138 897.226868,705.278320 
	C899.533691,710.943909 904.650574,711.116211 909.793579,710.995483 
	C914.406677,710.887207 917.181885,708.260681 918.705872,704.273132 
	C919.175232,703.045105 918.595398,701.416016 918.496094,699.970642 
	C917.507385,700.935730 916.554321,701.941040 915.522095,702.857178 
	C913.666931,704.503601 911.764404,706.096680 909.881714,707.712097 
	C908.593506,705.389160 907.227966,703.103943 906.066284,700.719360 
	C905.738037,700.045532 906.005981,699.081116 905.999939,697.310608 
M458.372162,766.819397 
	C458.582642,762.047424 458.735504,757.272034 459.019409,752.504395 
	C459.320618,747.445740 462.629791,743.798157 466.723999,744.023926 
	C472.164642,744.323914 472.072510,748.261230 472.016174,752.215881 
	C471.947906,757.007751 472.000000,761.801270 472.000000,766.594116 
	C472.509827,766.863770 473.019653,767.133423 473.529510,767.403076 
	C474.352081,766.282593 475.832397,765.192200 475.885223,764.036499 
	C476.135712,758.555603 476.324280,753.027039 475.827759,747.579895 
	C475.641663,745.538208 473.961517,743.086853 472.230072,741.836426 
	C467.451233,738.384644 464.672150,739.178711 458.509399,744.784851 
	C451.732758,738.671021 448.366821,738.419678 442.274628,742.853271 
	C440.402405,741.985657 439.032990,741.351013 437.006073,740.411682 
	C437.006073,749.106934 436.901062,756.751099 437.132538,764.385132 
	C437.163147,765.394409 438.908752,766.351624 440.387512,767.876953 
	C441.039124,760.889709 441.181122,755.435608 442.164276,750.137695 
	C442.879517,746.283325 445.751251,743.651917 449.965393,744.093628 
	C454.055206,744.522278 454.935608,747.835876 454.985657,751.350891 
	C455.044891,755.510986 454.834106,759.683777 455.114502,763.825745 
	C455.188568,764.920044 456.639740,765.921204 458.372162,766.819397 
M725.742310,740.986389 
	C723.072815,744.034302 720.145325,740.757019 717.238159,741.075806 
	C717.238159,752.756775 717.238159,764.184753 717.238159,775.821594 
	C718.431274,775.821594 720.207520,775.929626 720.223816,775.805908 
	C720.708435,772.125916 721.018616,768.423096 721.357849,764.707458 
	C728.180542,768.643188 737.252991,767.762268 741.125122,762.537659 
	C744.360718,758.171875 745.138428,750.662842 741.820435,745.548767 
	C738.995605,741.194824 732.296936,739.133728 725.742310,740.986389 
M331.062958,763.701477 
	C330.717133,764.591003 330.371307,765.480530 330.024506,766.372498 
	C334.917664,768.745239 336.095825,764.890747 336.884766,762.012146 
	C339.128448,753.825623 345.557220,756.326660 350.934418,756.001953 
	C355.932983,755.700134 355.841095,759.970215 356.998901,762.954651 
	C358.227356,766.121094 359.877228,768.050781 363.817474,766.492859 
	C358.390442,754.900818 352.975250,743.334045 346.993378,730.556885 
	C341.385132,742.286133 336.424164,752.661743 331.062958,763.701477 
M430.998077,743.884827 
	C430.440338,742.933228 429.882629,741.981689 429.324921,741.030090 
	C428.307220,741.669800 427.289551,742.309570 425.896790,743.185059 
	C425.853149,743.154053 425.230194,742.617004 424.526306,742.225281 
	C418.474487,738.856201 412.810272,739.207275 408.187164,743.330994 
	C403.442047,747.563599 401.851227,752.395630 404.179932,759.251587 
	C405.968140,764.516357 410.925995,766.964478 418.147034,767.053467 
	C422.159973,767.102966 426.106567,763.051880 430.185089,766.820251 
	C430.199585,766.833496 430.592468,766.437134 430.999664,766.050903 
	C430.999664,759.092285 430.999664,751.952759 430.998077,743.884827 
M541.000000,760.384460 
	C541.000000,762.494934 541.000000,764.605408 541.000000,767.041931 
	C542.980957,766.896606 544.363831,766.795166 546.236633,766.657776 
	C546.236633,761.255920 546.236633,756.192932 546.236633,750.983887 
	C549.244812,750.983887 551.755981,751.199646 554.217163,750.940430 
	C559.928711,750.338867 563.717041,746.478394 563.985413,741.298889 
	C564.191467,737.320557 560.585815,732.397827 556.620789,732.115601 
	C551.556152,731.755249 546.446472,732.028198 541.000000,732.028198 
	C541.000000,741.532166 541.000000,750.470886 541.000000,760.384460 
M702.618164,763.071594 
	C700.321106,762.124146 697.612366,761.652344 695.830078,760.110046 
	C693.553711,758.140137 692.005676,757.652771 689.868958,760.030884 
	C690.643555,761.011719 691.437378,761.696716 691.826294,762.563416 
	C693.744751,766.838867 697.796997,767.832153 701.582642,767.791260 
	C705.776489,767.746033 709.631470,765.316956 710.758484,761.046143 
	C711.766113,757.227783 711.431152,753.098938 707.753052,750.251709 
	C704.918945,748.057678 701.663147,746.216064 699.413269,743.531799 
	C698.073059,741.932800 698.314819,739.007812 697.845398,736.678955 
	C700.037109,736.506592 702.284729,735.972595 704.399109,736.299927 
	C705.630737,736.490540 706.648804,738.060730 707.980103,739.195251 
	C709.002747,738.285889 709.945801,737.447266 711.361023,736.188843 
	C710.140198,735.213928 709.055115,734.431091 708.065186,733.542175 
	C704.161621,730.037048 697.400818,729.990540 694.275879,733.481201 
	C690.964294,737.180359 691.388489,741.977417 695.599182,746.060547 
	C698.189758,748.572632 701.115845,750.738708 703.705933,753.251221 
	C708.592407,757.991272 708.530701,758.205261 702.618164,763.071594 
M771.439575,764.036011 
	C777.397766,755.977295 777.177185,748.849304 770.797974,743.299500 
	C766.157104,739.262085 759.613037,738.838928 754.425476,742.240845 
	C749.312561,745.593811 746.930237,752.365845 749.091492,758.636841 
	C750.593689,762.995728 754.786621,767.682922 761.535217,766.923279 
	C764.700317,766.567017 767.773254,765.391785 771.439575,764.036011 
M504.051453,742.268982 
	C502.501801,741.778687 500.952148,741.288452 498.453186,740.497864 
	C500.454254,745.135193 501.707703,748.495117 503.315399,751.675903 
	C507.269501,759.498962 510.713806,767.265747 504.005798,776.026367 
	C506.479858,775.628723 508.930450,775.025330 509.575134,773.603271 
	C514.412842,762.931763 518.894409,752.098755 523.486145,741.319336 
	C519.841370,739.954651 518.212585,741.906067 516.990662,745.114807 
	C515.370789,749.368713 513.426331,753.499023 511.149628,758.775696 
	C508.612976,752.782654 506.534790,747.872742 504.051453,742.268982 
M614.000061,761.355408 
	C614.001221,758.034363 613.098267,754.346619 614.254944,751.494141 
	C615.439697,748.572449 618.218689,745.424500 621.067322,744.271179 
	C624.626221,742.830261 627.760986,745.017639 628.110962,749.411865 
	C628.487671,754.142090 628.857605,758.881714 628.945374,763.622498 
	C628.996094,766.364624 629.579285,767.773438 632.977417,766.444397 
	C632.977417,761.589111 633.367554,756.600098 632.889893,751.695679 
	C632.089111,743.474060 627.932068,739.389038 621.456055,740.059204 
	C617.741516,740.443665 614.085144,741.390442 610.002502,742.159424 
	C610.002502,749.039062 609.899170,756.503906 610.109009,763.959900 
	C610.142212,765.137451 611.590088,766.275146 612.383850,767.431274 
	C612.847961,767.180908 613.312073,766.930603 613.776184,766.680298 
	C613.850769,765.222290 613.925415,763.764282 614.000061,761.355408 
M662.444580,767.000000 
	C667.621887,767.455078 671.585205,765.670776 674.041870,761.027283 
	C671.615234,757.704712 669.928833,760.188477 668.162842,761.425293 
	C664.164551,764.225464 658.060852,764.355103 654.793762,761.155762 
	C651.771973,758.196777 650.223999,754.503540 652.035950,750.154541 
	C654.628418,743.931946 663.211792,741.789673 668.613892,746.224243 
	C670.714722,747.948792 672.270935,748.999756 674.021057,746.118164 
	C669.008667,739.738708 662.130249,738.219971 654.744995,741.723145 
	C649.790527,744.073303 646.145081,750.631714 647.179871,755.409912 
	C649.062622,764.103577 654.865784,767.827576 662.444580,767.000000 
M594.973206,740.051208 
	C593.476135,740.035278 591.962402,739.867432 590.484985,740.030273 
	C584.638611,740.674622 580.018066,743.584290 578.489807,749.255188 
	C577.169922,754.152588 577.099915,759.273315 581.722412,763.352661 
	C586.545044,767.608704 594.825623,768.725952 600.832825,764.930176 
	C602.192749,764.070984 603.955994,761.282043 603.553284,760.656738 
	C602.011719,758.263000 600.597656,760.311340 598.976868,761.397156 
	C590.771851,766.894104 583.407288,761.600403 582.070129,755.403931 
	C581.187866,751.315613 582.582275,747.465820 586.190552,745.557861 
	C590.130859,743.474121 594.686401,742.573242 598.576477,746.150208 
	C600.529968,747.946411 602.188232,749.151245 604.569092,745.162720 
	C601.533691,743.485474 598.653503,741.893982 594.973206,740.051208 
M390.609253,750.000061 
	C392.768311,749.999084 394.929993,749.930054 397.085815,750.012878 
	C400.504211,750.144165 400.478821,748.528198 399.202362,745.800781 
	C394.887421,745.800781 390.628601,745.800781 386.331238,745.800781 
	C386.331238,742.382874 386.331238,739.337463 386.331238,735.999939 
	C389.460571,735.999939 392.261627,736.006714 395.062622,735.998474 
	C400.072754,735.983643 400.072754,735.979858 399.190491,732.271118 
	C393.583252,732.271118 388.000031,732.271118 382.260620,732.271118 
	C382.260620,743.919739 382.260620,755.296082 382.260620,766.672363 
	C382.716675,766.925964 383.172729,767.179565 383.628754,767.433167 
	C384.418335,766.272339 385.778809,765.162842 385.888885,763.940857 
	C386.200439,760.481079 386.186890,756.962158 385.944458,753.491455 
	C385.736908,750.520691 386.960938,749.606323 390.609253,750.000061 
M783.983948,745.894653 
	C783.983948,752.826904 783.983948,759.759155 783.983948,766.884583 
	C785.328003,766.884583 786.824951,766.944763 786.830933,766.876038 
	C787.484314,759.318359 788.026367,751.751038 788.571045,744.235229 
	C790.041016,744.016663 791.462646,743.805298 792.884338,743.593933 
	C793.013123,743.172668 793.141968,742.751404 793.270752,742.330139 
	C791.553650,741.593201 789.836548,740.856262 787.783264,739.974976 
	C787.783264,737.161377 787.783264,734.222046 787.783264,730.763123 
	C780.846619,732.141846 785.903748,737.839294 783.451172,740.359802 
	C782.059814,740.972046 780.571106,741.627197 779.082397,742.282288 
	C780.508057,742.914246 781.944519,743.523743 783.349426,744.198975 
	C783.601074,744.319946 783.722290,744.712402 783.983948,745.894653 
M495.892334,731.958252 
	C494.719116,731.644836 493.545898,731.331421 492.002899,730.919189 
	C492.002899,742.572021 492.048248,753.328979 491.976318,764.085205 
	C491.953644,767.476929 493.456543,767.478821 495.982544,766.311890 
	C495.982544,755.069946 495.982544,743.980103 495.892334,731.958252 
M482.003021,764.184387 
	C482.863953,765.246399 483.724884,766.308472 484.585815,767.370483 
	C484.981140,767.080872 485.376434,766.791321 485.771729,766.501709 
	C485.771729,758.142822 485.771729,749.783936 485.771729,741.424988 
	C485.359650,741.135071 484.947601,740.845093 484.535522,740.555115 
	C483.691315,741.670959 482.159088,742.761414 482.116852,743.906860 
	C481.879639,750.342163 482.001282,756.790771 482.003021,764.184387 
M569.000427,744.764771 
	C569.001282,751.209839 569.065125,757.655762 568.977356,764.099609 
	C568.930969,767.502502 570.470215,767.472290 572.791748,766.395203 
	C572.791748,757.935303 572.791748,749.713074 572.791748,741.490784 
	C572.401001,741.185059 572.010315,740.879333 571.619568,740.573608 
	C570.747314,741.656311 569.875122,742.739075 569.000427,744.764771 
M639.000000,759.404297 
	C639.002075,761.070557 638.643250,762.851196 639.123413,764.365906 
	C639.490967,765.525269 640.918884,766.348511 641.875183,767.321228 
	C642.175537,766.973083 642.475952,766.624939 642.776367,766.276794 
	C642.776367,757.996765 642.776367,749.716675 642.776367,741.436584 
	C642.361511,741.144287 641.946655,740.851929 641.531738,740.559570 
	C640.688782,741.684998 639.185425,742.772461 639.118164,743.942566 
	C638.841431,748.758789 639.000977,753.600098 639.000000,759.404297 
M638.527344,736.011780 
	C640.148865,735.702026 641.870605,735.603149 643.313843,734.917908 
	C643.631104,734.767334 643.372070,732.120300 642.626587,731.374573 
	C641.880920,730.628601 639.234009,730.368164 639.083252,730.685120 
	C638.397461,732.128174 638.297729,733.849792 638.527344,736.011780 
M571.921509,736.549927 
	C572.451477,735.046631 573.503418,733.471558 573.310486,732.067566 
	C573.199402,731.259521 570.939148,730.050720 569.891663,730.258667 
	C568.790588,730.477112 567.982422,732.171143 567.046265,733.220459 
	C568.448486,734.453613 569.850708,735.686768 571.921509,736.549927 
M486.921234,731.897705 
	C485.276794,731.607788 483.586761,730.996704 482.015289,731.219971 
	C481.532410,731.288635 480.802216,733.888733 481.231659,734.873230 
	C481.639832,735.809082 484.026245,736.939209 484.471100,736.595703 
	C485.624390,735.705444 486.187622,734.050781 486.921234,731.897705 
z"/>
<path fill="#C2993B" opacity="1.000000" stroke="none" 
	d="
M565.744263,220.195312 
	C565.337036,240.304153 565.337036,260.273468 565.337036,280.282532 
	C642.421387,282.621429 695.864807,319.876678 728.213074,390.986572 
	C717.417175,390.986572 708.038452,391.117828 698.672791,390.828064 
	C697.438416,390.789886 695.846924,388.811249 695.136475,387.376831 
	C686.680664,370.306183 674.869690,355.768311 660.660156,343.342804 
	C642.802490,327.727203 622.078064,317.065704 598.836487,312.165863 
	C567.821289,305.627167 537.656250,308.228851 508.519806,321.685760 
	C490.153717,330.168304 474.140472,341.714600 460.941986,356.780273 
	C442.964386,377.301239 431.004272,400.980011 426.994019,428.281036 
	C426.661652,430.543732 426.357117,432.810760 426.000702,435.069641 
	C425.674164,437.139099 425.294800,439.200256 424.722534,442.519104 
	C430.636383,438.171539 435.851501,434.657623 440.710815,430.706085 
	C455.988800,418.282135 470.919434,405.421082 486.416229,393.280243 
	C494.566132,386.895233 504.309052,386.790924 514.051697,389.519989 
	C528.017029,393.431976 539.898987,401.090973 550.817993,410.357269 
	C556.976746,415.583740 562.796692,421.214600 569.048523,426.321442 
	C570.228760,427.285553 572.866638,427.137360 574.590820,426.649811 
	C583.174133,424.222717 591.602722,421.227234 600.227234,418.973114 
	C610.265442,416.349457 618.898560,417.956360 626.229980,429.784241 
	C635.153137,444.180115 645.566528,457.691162 655.846375,471.195892 
	C665.374268,483.712860 675.538086,495.747833 685.506165,507.926117 
	C687.998352,510.970856 690.814392,513.750549 693.791931,516.989685 
	C694.847961,515.288940 695.826538,513.712891 696.779480,512.178101 
	C706.726440,512.178101 716.688904,512.178101 726.711487,512.178101 
	C708.705933,565.610352 655.181946,611.188477 594.989380,620.023926 
	C552.641785,626.240051 513.055603,618.659363 476.654541,596.065002 
	C444.507660,576.111206 421.405365,548.128784 408.189362,512.850098 
	C379.554108,436.411713 406.684448,356.992645 468.316284,312.233826 
	C464.568787,306.694214 460.851532,301.071625 457.004211,295.539490 
	C449.733185,285.084412 442.461639,274.627411 434.976959,264.326202 
	C434.061401,263.066132 431.883881,262.256714 430.209991,262.098724 
	C424.542358,261.563843 422.384918,259.194244 423.013153,253.345947 
	C423.461182,249.175323 426.496979,247.978897 430.024658,248.059113 
	C434.574402,248.162537 436.631897,251.555679 436.171906,256.938110 
	C436.078888,258.026337 436.982391,259.568481 437.901855,260.318817 
	C450.332733,270.462524 462.847626,280.503235 476.462646,291.472473 
	C474.661530,283.926422 473.165802,277.589661 471.629761,271.262665 
	C471.092804,269.050964 470.741333,266.723724 469.757538,264.717804 
	C469.180237,263.540771 467.639404,262.399231 466.333221,262.094940 
	C461.556183,260.982086 459.017731,257.684021 460.025635,253.341171 
	C460.741272,250.257797 465.644745,247.328079 468.563965,248.239655 
	C472.984985,249.620239 474.993896,253.502899 473.538116,257.933228 
	C473.284302,258.705627 472.850922,259.419006 472.389282,260.394592 
	C479.231903,266.250092 486.135101,272.157410 493.127075,278.140686 
	C493.127075,267.571442 493.141632,257.410004 493.121033,247.248672 
	C493.110565,242.087357 493.187286,236.917679 492.896881,231.770279 
	C492.813232,230.288315 491.972260,228.318085 490.821075,227.519791 
	C485.974762,224.159195 484.546600,220.416107 487.149414,216.591812 
	C489.059265,213.785751 494.342377,213.049393 497.420990,215.160187 
	C500.896271,217.542953 500.846405,221.408096 497.283295,226.368683 
	C497.194794,226.491882 497.174072,226.663788 497.037292,227.053543 
	C506.067139,240.581696 515.181519,254.236511 524.901611,268.798706 
	C527.608643,259.105347 530.037781,250.407333 532.515259,241.535858 
	C528.270264,240.273926 525.834656,237.226028 527.207947,232.839264 
	C527.824524,230.869720 530.411987,228.772949 532.512024,228.183426 
	C535.803650,227.259415 539.210693,228.237045 540.536194,232.071625 
	C542.101929,236.601074 539.837097,239.604660 535.954773,241.711807 
	C539.316650,250.851654 542.602844,259.785645 546.326111,269.907898 
	C551.479919,253.201660 556.292786,237.775208 560.905884,222.289246 
	C561.246094,221.147141 560.517029,219.248001 559.647339,218.264755 
	C556.833923,215.083801 557.380066,211.630127 559.256897,208.714493 
	C561.081604,205.879852 564.491333,205.203445 567.401733,207.110428 
	C569.009155,208.163681 570.442566,210.274109 570.878662,212.157089 
	C571.761230,215.968216 570.254883,218.934769 565.744263,220.195312 
M513.977600,583.687378 
	C532.644531,590.748108 551.787781,595.094910 572.842102,593.952148 
	C594.351624,593.992249 614.403503,588.431946 633.804443,577.807129 
	C638.540955,574.885376 643.277466,571.963684 648.692261,568.900940 
	C651.485535,566.640930 654.278809,564.380920 657.671936,561.815063 
	C659.480042,560.234314 661.288086,558.653564 663.749268,556.913513 
	C665.547974,554.998291 667.346619,553.083130 669.724792,550.819946 
	C671.248413,549.186768 672.772095,547.553589 674.197693,546.025391 
	C670.521179,543.706848 667.288574,541.805237 664.197754,539.695923 
	C648.470093,528.962891 632.290771,527.999756 615.090759,536.342163 
	C596.943359,545.144043 579.024597,544.016418 562.212341,532.658630 
	C546.416870,521.987671 530.341187,519.741760 512.985291,528.865234 
	C508.190704,531.385620 502.668121,533.259338 497.309753,533.827087 
	C482.720673,535.372864 469.020996,532.835144 456.823029,523.640381 
	C452.811920,520.616760 448.242981,516.921570 441.720764,518.443665 
	C443.648590,521.797546 445.411957,524.865234 447.224426,528.459106 
	C447.607758,528.791626 447.991089,529.124146 448.381775,529.609619 
	C448.381775,529.609619 448.476471,529.729980 448.489349,530.392212 
	C452.319977,534.935425 456.150604,539.478638 460.014160,544.648193 
	C460.327423,545.126770 460.640686,545.605408 460.976349,546.022827 
	C460.976349,546.022827 460.914642,546.043640 461.184052,546.659790 
	C466.935272,551.973816 472.686523,557.287842 478.702179,563.221924 
	C482.796387,565.826660 486.890594,568.431396 491.224915,571.689575 
	C495.462982,574.166321 499.701050,576.643127 504.376953,579.646301 
	C507.409363,580.793762 510.441772,581.941223 513.977600,583.687378 
M638.721069,324.808167 
	C663.728577,339.001587 682.878479,358.868530 696.420044,384.213898 
	C697.206726,385.686371 698.659729,387.820862 699.882446,387.875946 
	C707.424683,388.215515 714.989929,388.046448 722.821960,388.046448 
	C696.648132,319.639404 622.151001,272.143555 540.372925,285.390747 
	C451.489014,299.789001 390.948120,381.520325 400.138885,468.582458 
	C409.194916,554.368652 481.517090,622.390137 573.717346,619.704163 
	C616.916199,618.445740 654.592834,601.725342 685.653015,571.142517 
	C701.903687,555.141663 714.458801,536.712891 723.332520,514.605957 
	C715.536194,514.605957 708.894714,514.715393 702.259644,514.555603 
	C699.339661,514.485291 697.780273,515.659851 696.497070,518.222412 
	C671.469788,568.203857 611.605469,605.048828 546.218750,595.120300 
	C467.192474,583.120605 414.791016,510.433899 423.099030,436.536346 
	C425.129730,418.473938 429.581635,401.031525 438.436371,385.159637 
	C466.729218,334.445282 509.259186,307.318024 568.231018,306.820709 
	C593.283997,306.609467 616.285645,312.687592 638.721069,324.808167 
M575.090576,530.672852 
	C579.921875,531.777832 584.702148,533.352783 589.595764,533.883728 
	C598.137451,534.810547 605.777222,531.419617 613.596741,528.369568 
	C620.301453,525.754333 627.490967,523.825256 634.629089,522.996216 
	C648.410706,521.395691 660.240234,526.839233 671.384216,534.615540 
	C679.900330,540.558228 680.300903,540.155029 685.979187,531.732605 
	C686.910278,530.351562 687.888855,528.997192 688.735840,527.565613 
	C693.804810,518.997803 693.493347,521.314697 687.892334,514.551392 
	C664.313538,486.079498 640.092468,458.111633 620.567322,426.517578 
	C619.018555,424.011658 615.486633,421.716461 612.586548,421.288788 
	C607.749329,420.575500 602.536987,420.778473 597.730408,421.782288 
	C581.442383,425.183929 566.617798,432.518921 551.985840,440.124329 
	C515.266602,459.210144 480.741974,481.870209 446.681335,505.266785 
	C445.495514,506.081329 444.443451,507.090515 443.473145,507.890228 
	C449.577728,510.924652 456.081726,513.018494 461.212982,516.918335 
	C477.671906,529.427490 494.625854,527.221619 512.188904,520.263184 
	C529.702393,513.324402 546.844238,513.223328 563.254211,523.695801 
	C566.896423,526.020142 570.677368,528.127136 575.090576,530.672852 
M541.612366,443.149719 
	C550.281311,438.694061 558.950256,434.238373 568.152344,429.508698 
	C552.913269,414.571808 537.468201,401.020905 517.775146,393.341125 
	C515.613525,392.498138 513.349121,391.716370 511.065918,391.422668 
	C501.788666,390.229370 493.188690,390.740082 485.293182,397.336426 
	C466.259186,413.238342 446.782532,428.614197 427.327332,444.003571 
	C424.777222,446.020752 423.880096,447.975037 423.963959,451.058960 
	C424.446655,468.818176 427.615204,486.035400 433.961609,502.646912 
	C436.553375,509.430939 436.850494,509.502136 442.947815,505.274841 
	C474.716003,483.249908 507.022339,462.078125 541.612366,443.149719 
z"/>
<path fill="#C69B3C" opacity="1.000000" stroke="none" 
	d="
M565.187744,396.046753 
	C555.289307,391.943115 550.698059,383.992401 550.235596,374.448669 
	C549.617249,361.689056 559.162964,349.526367 572.711548,348.926300 
	C581.831726,348.522339 589.316162,350.998657 595.012268,358.452759 
	C601.472046,366.906342 601.836548,379.810486 595.402954,388.041626 
	C588.207520,397.247406 578.053101,400.779602 565.187744,396.046753 
z"/>
<path fill="#405410" opacity="1.000000" stroke="none" 
	d="
M543.294067,665.885620 
	C550.906372,682.156677 547.117737,698.469971 533.408325,706.934631 
	C523.316650,713.165466 512.391968,712.992249 502.145020,707.415588 
	C492.710907,702.281250 488.357147,693.647217 487.951324,682.819397 
	C487.263763,664.474243 500.231628,652.812012 517.391907,652.286621 
	C527.857788,651.966187 537.202881,655.960754 543.294067,665.885620 
M508.757446,704.876404 
	C518.726562,711.053223 527.681885,707.780457 531.206116,696.580688 
	C534.225281,686.986145 533.754517,677.212463 531.574951,667.626038 
	C529.861084,660.088013 524.567749,656.105774 517.926025,656.007202 
	C510.497223,655.896851 505.689423,659.033020 503.998230,667.447083 
	C502.455292,675.123962 501.946411,683.224060 502.510559,691.027100 
	C502.842499,695.618347 506.154053,699.994263 508.757446,704.876404 
z"/>
<path fill="#405410" opacity="1.000000" stroke="none" 
	d="
M825.352661,668.288147 
	C832.668518,670.790588 835.739746,675.214783 835.958496,683.575317 
	C836.110962,689.403564 836.061279,695.239746 835.974609,701.070496 
	C835.928345,704.188416 835.717285,707.200378 840.100830,707.426575 
	C840.455139,707.444763 840.761719,708.386475 841.363892,709.325317 
	C834.043030,709.325317 827.226318,709.325317 820.409607,709.325317 
	C820.122803,708.993958 819.835999,708.662598 819.549194,708.331238 
	C825.983643,705.922241 824.992981,700.804749 824.992004,696.069946 
	C824.991028,691.572144 825.254578,687.040955 824.804382,682.584778 
	C824.209595,676.695190 821.559692,673.901489 817.617371,674.037964 
	C813.276855,674.188354 809.426270,677.831543 809.157837,683.004089 
	C808.795715,689.983643 808.801392,697.010742 809.232056,703.981384 
	C809.330750,705.577148 811.808411,707.025818 813.739319,709.143250 
	C806.507141,709.143250 799.501770,709.143250 792.496338,709.143250 
	C800.158020,706.168274 797.905090,699.712524 797.965881,694.266907 
	C798.082947,683.770386 798.000000,673.271606 798.000000,662.773804 
	C797.999939,654.278809 797.999939,654.278809 792.392334,649.417786 
	C797.513855,649.417786 802.641602,649.307861 807.747009,649.595459 
	C808.233337,649.622925 808.909485,652.129333 808.935059,653.495361 
	C809.059143,660.112488 808.991028,666.733154 808.991028,672.111389 
	C814.407532,670.775574 819.683594,669.474365 825.352661,668.288147 
z"/>
<path fill="#405410" opacity="1.000000" stroke="none" 
	d="
M651.016724,672.859680 
	C648.012512,684.442932 638.506470,685.107605 629.646240,685.828491 
	C621.710999,686.474243 622.012207,685.190063 622.000305,693.994873 
	C621.998047,695.658142 622.124023,697.332397 621.976746,698.982544 
	C621.537659,703.902771 621.731750,708.175842 628.619812,707.230042 
	C629.167908,707.154785 629.848694,708.046814 631.674866,709.352051 
	C621.042236,709.352051 611.782410,709.352051 601.041199,709.352051 
	C602.881836,707.982239 603.504272,707.132935 604.024048,707.191711 
	C609.414551,707.801147 610.178772,704.914978 610.086975,700.334106 
	C609.833801,687.698547 609.932678,675.054016 610.040405,662.414307 
	C610.069824,658.956360 609.633179,656.499023 605.258789,656.870728 
	C604.327332,656.949890 603.285339,655.728882 602.294250,655.106873 
	C603.219116,654.418030 604.155090,653.116943 605.067261,653.133362 
	C616.503906,653.339600 628.006653,653.086731 639.348450,654.298889 
	C647.782837,655.200378 653.323669,661.549744 651.016724,672.859680 
M622.001282,676.302246 
	C621.250916,681.055054 623.523193,682.424683 627.950012,682.028931 
	C633.612000,681.522583 636.732117,679.159058 637.805542,673.981506 
	C639.305420,666.747009 637.102722,659.667419 632.677185,657.499023 
	C626.821655,654.629883 622.013733,657.502380 622.001587,663.882629 
	C621.994263,667.705139 622.000305,671.527588 622.001282,676.302246 
z"/>
<path fill="#405410" opacity="1.000000" stroke="none" 
	d="
M403.583008,673.241272 
	C402.221130,672.704224 401.215698,672.284241 400.210297,671.864319 
	C400.320160,671.426270 400.430023,670.988220 400.539886,670.550171 
	C404.782898,670.550171 409.025909,670.550171 414.805206,670.550171 
	C405.344757,675.904602 405.841370,684.953064 402.994537,692.364624 
	C401.211914,697.005493 400.064392,701.898254 398.152008,706.477600 
	C397.410706,708.252563 395.165222,710.811951 393.926819,710.643799 
	C391.946442,710.374939 389.439331,708.503052 388.564484,706.645081 
	C386.314362,701.866638 384.847687,696.720459 383.046143,691.729065 
	C382.552704,690.362000 381.982330,689.022705 380.837341,686.129456 
	C378.592865,693.204285 376.927338,698.970764 374.901154,704.607666 
	C373.985138,707.156067 374.316528,710.990295 369.913361,710.958069 
	C365.974640,710.929199 364.597900,708.209290 363.493896,705.081543 
	C360.623840,696.950500 357.853058,688.779358 354.738831,680.741943 
	C353.429688,677.363403 351.354706,674.281494 349.486633,670.801636 
	C355.144012,670.801636 361.835785,670.801636 368.527527,670.801636 
	C368.616730,671.139832 368.705902,671.477966 368.795105,671.816162 
	C367.322144,672.514038 365.849152,673.211914 364.080902,674.049683 
	C366.830505,682.097900 369.544250,690.041138 372.257965,697.984375 
	C375.271576,689.115601 382.191833,680.982849 375.304596,670.701172 
	C381.898743,670.701172 387.238770,670.701172 392.578796,670.701172 
	C392.647064,671.100403 392.715332,671.499573 392.783569,671.898804 
	C391.405487,672.517944 390.027374,673.137146 388.192444,673.961609 
	C390.867981,681.970825 393.558350,690.024536 396.248749,698.078247 
	C396.635834,698.069275 397.022949,698.060364 397.410065,698.051392 
	C399.846375,690.224487 402.294220,682.401123 404.674347,674.557129 
	C404.764740,674.259277 404.199310,673.762512 403.583008,673.241272 
z"/>
<path fill="#405410" opacity="1.000000" stroke="none" 
	d="
M233.723450,656.267273 
	C228.025314,657.733643 224.838913,661.414612 222.950806,666.254089 
	C218.787094,676.926208 219.210754,687.675537 223.184906,698.268005 
	C225.694351,704.956543 231.099701,708.031067 237.981216,707.887024 
	C244.992126,707.740356 249.462204,703.333252 252.681335,697.499695 
	C253.709625,695.636292 254.631531,693.714172 255.602097,691.818909 
	C256.161377,691.998962 256.720673,692.179016 257.279938,692.359131 
	C257.279938,698.438721 257.279938,704.518372 257.279938,709.398254 
	C253.778168,709.398254 250.850006,708.868958 248.190216,709.489685 
	C236.574249,712.200623 225.311203,712.631531 215.757767,704.141479 
	C205.901520,695.382202 204.800217,683.747253 208.092789,672.105835 
	C211.340607,660.622559 219.656036,654.148438 232.029984,652.786316 
	C239.405441,651.974426 246.115952,653.110107 252.666138,656.173889 
	C253.983734,655.055603 255.223511,654.003418 256.463287,652.951233 
	C256.926086,653.098206 257.388855,653.245239 257.851654,653.392212 
	C257.851654,658.928406 257.896210,664.465515 257.785828,669.999451 
	C257.774231,670.581787 256.805359,671.648193 256.358765,671.608582 
	C255.556580,671.537354 254.563156,670.969727 254.100815,670.298645 
	C253.263123,669.082825 252.734421,667.648804 252.115723,666.288147 
	C248.584930,658.523193 242.635208,655.069153 233.723450,656.267273 
z"/>
<path fill="#405410" opacity="1.000000" stroke="none" 
	d="
M452.793396,669.957825 
	C457.368317,672.788635 458.810333,676.944763 458.951782,681.611877 
	C459.113190,686.938782 458.997833,692.274048 458.999573,697.605713 
	C459.001831,704.538818 459.000488,704.538818 465.047363,709.352478 
	C457.355957,709.352478 450.388367,709.352478 443.420776,709.352478 
	C443.106049,709.024658 442.791321,708.696777 442.476593,708.368958 
	C449.399658,705.978821 447.928986,700.598694 447.987122,695.795105 
	C448.041534,691.297302 448.201599,686.784424 447.913300,682.304077 
	C447.694519,678.903625 447.594269,674.999329 443.066681,674.109070 
	C438.299835,673.171753 435.425537,675.926636 433.754272,679.856201 
	C432.740082,682.240784 432.410126,684.961731 432.063873,687.570190 
	C431.803040,689.535522 431.748077,691.601746 432.049133,693.553955 
	C432.879181,698.936646 428.596405,705.969971 436.862946,709.323975 
	C429.716797,709.323975 422.570648,709.323975 415.424530,709.323975 
	C415.048004,708.935730 414.671448,708.547424 414.294922,708.159180 
	C422.771790,706.641052 420.891388,700.679810 420.982208,695.616333 
	C421.065857,690.952576 421.025208,686.286072 420.992554,681.621094 
	C420.962738,677.362122 422.547607,672.173340 414.944885,672.273865 
	C419.777679,668.130554 430.922272,669.480713 432.720612,674.284973 
	C438.426483,668.765991 444.745911,665.892883 452.793396,669.957825 
z"/>
<path fill="#405410" opacity="1.000000" stroke="none" 
	d="
M732.738281,679.767639 
	C731.726501,676.596497 730.817322,674.112671 727.096436,673.955750 
	C722.877014,673.777771 720.438354,676.122437 719.007141,679.398926 
	C717.844116,682.061523 717.434692,685.116821 717.069702,688.045166 
	C716.763062,690.505554 716.862488,693.043396 717.029602,695.530334 
	C717.360779,700.457947 714.512878,706.590027 721.872681,709.345093 
	C714.723389,709.345093 707.574097,709.345093 700.424805,709.345093 
	C700.084595,708.985229 699.744324,708.625427 699.404053,708.265564 
	C707.800537,706.448242 705.923096,700.388489 705.987793,695.164978 
	C706.045532,690.502075 706.029114,685.837769 705.991272,681.174500 
	C705.957764,677.041443 707.433533,671.985474 699.872742,672.445129 
	C704.600037,668.096558 715.913025,669.428101 717.492981,673.838074 
	C720.276733,672.201416 722.887390,670.093933 725.870056,669.018921 
	C735.308960,665.617126 743.587158,671.267090 743.939087,681.262085 
	C744.173401,687.916199 744.101440,694.587219 743.955750,701.246094 
	C743.884033,704.527588 744.037109,707.269348 748.289978,707.420715 
	C748.700195,707.435364 749.080872,708.279724 749.946228,709.287231 
	C742.316650,709.287231 735.366394,709.287231 728.416138,709.287231 
	C728.043030,708.904297 727.669861,708.521301 727.296753,708.138367 
	C734.319031,706.279602 732.968811,701.184814 732.983459,696.669067 
	C733.001343,691.174988 732.896240,685.680420 732.738281,679.767639 
z"/>
<path fill="#405410" opacity="1.000000" stroke="none" 
	d="
M660.487976,690.307800 
	C665.471558,689.074463 670.077454,687.635498 674.783936,687.125732 
	C678.032043,686.773926 679.514526,685.651306 678.934937,682.580627 
	C678.322510,679.335693 678.001038,675.653320 676.205750,673.114197 
	C674.113281,670.154968 670.921692,670.863403 669.002014,674.182800 
	C668.095581,675.750305 667.944153,678.142090 666.667236,679.016479 
	C664.766113,680.318481 661.929016,681.588562 659.928589,681.095093 
	C656.993896,680.371094 656.466919,677.522583 657.777405,674.577881 
	C659.581848,670.522827 663.156616,669.474854 667.025330,668.830505 
	C683.888489,666.021973 690.946167,671.927795 690.996521,687.442078 
	C691.012146,692.266663 690.963257,697.091858 691.024170,701.915710 
	C691.043762,703.467834 691.320801,705.016724 691.479980,706.567078 
	C691.932068,706.698181 692.384094,706.829285 692.836121,706.960388 
	C694.110291,704.920471 695.384521,702.880615 697.362305,699.714417 
	C698.430908,705.048889 698.178589,708.390442 694.181824,710.287720 
	C689.235046,712.636047 684.338440,710.944946 680.148499,705.621826 
	C672.185364,712.106873 661.505798,712.935730 657.003845,707.418152 
	C653.069092,702.595764 654.495728,694.931335 660.487976,690.307800 
M674.018127,705.476074 
	C675.640747,703.127380 678.072632,700.960876 678.654419,698.377808 
	C679.216492,695.881836 677.871948,692.956360 677.364990,690.219604 
	C674.107544,691.506714 669.648682,691.933960 667.936096,694.326721 
	C666.277893,696.643555 667.067627,701.047791 667.647034,704.385010 
	C667.784668,705.177490 671.374451,705.370605 674.018127,705.476074 
z"/>
<path fill="#405410" opacity="1.000000" stroke="none" 
	d="
M315.409332,709.966431 
	C298.668457,703.633972 299.129608,681.900940 308.453644,673.848999 
	C316.195801,667.163147 327.160645,665.990417 337.036163,672.048950 
	C343.536224,676.036682 346.873199,686.620911 344.351166,695.250549 
	C340.544647,708.275513 329.479340,714.015015 315.409332,709.966431 
M332.825348,695.923218 
	C332.554321,690.313721 332.531158,684.677734 331.936279,679.102783 
	C331.431458,674.372131 328.169922,671.538147 323.591980,671.307800 
	C318.905914,671.072021 315.861145,674.570862 315.495789,678.635620 
	C314.822449,686.127014 314.737976,693.776428 315.506378,701.247070 
	C315.882324,704.902466 318.886230,708.040283 323.559235,707.998596 
	C328.217224,707.956970 330.170685,704.735718 331.713623,701.137451 
	C332.286133,699.802307 332.315796,698.234436 332.825348,695.923218 
z"/>
<path fill="#405410" opacity="1.000000" stroke="none" 
	d="
M553.606934,709.046875 
	C554.267456,708.086060 555.260620,707.602539 555.894226,706.825745 
	C557.345032,705.047058 559.678101,703.182312 559.782654,701.251282 
	C560.222717,693.119202 559.921814,684.949402 560.011353,676.794678 
	C560.041870,674.008484 558.880676,672.903503 556.139709,672.958435 
	C554.865417,672.983948 553.580444,672.479004 552.238647,672.201782 
	C552.524536,671.261475 552.577209,670.961487 552.620789,670.962830 
	C559.910278,671.183838 559.897095,665.750366 560.975220,660.708435 
	C563.736938,647.792786 578.927002,645.282654 587.657776,650.653625 
	C589.441833,651.751221 590.293884,655.040283 590.645874,657.454712 
	C590.785767,658.414307 588.052307,660.918884 587.228638,660.676392 
	C584.975403,660.013062 582.926208,658.410278 581.014343,656.902832 
	C579.094360,655.388977 577.437622,653.541321 575.665466,651.839966 
	C574.221375,654.054138 572.677673,656.212402 571.387451,658.512878 
	C570.940002,659.310669 571.067871,660.458374 571.022827,661.450317 
	C570.662781,669.382568 570.670166,669.373474 578.605347,670.039551 
	C579.411743,670.107239 580.217468,670.325623 580.988953,670.579163 
	C581.218811,670.654663 581.330872,671.088562 582.112061,672.357788 
	C579.383667,672.606995 577.138062,672.989319 574.895630,672.971436 
	C572.178589,672.949829 570.966187,673.975952 570.991028,676.778076 
	C571.069458,685.598877 571.073669,694.421265 570.989258,703.241943 
	C570.962280,706.061768 572.187012,707.073242 574.896118,707.041809 
	C576.395142,707.024475 577.900208,707.532166 579.357727,708.794678 
	C570.812439,709.986572 562.322937,710.520081 553.606934,709.046875 
z"/>
<path fill="#405410" opacity="1.000000" stroke="none" 
	d="
M846.001648,691.822754 
	C845.453552,682.624329 847.727112,675.029236 855.898132,670.671814 
	C864.025269,666.337646 872.425537,666.948120 879.859680,672.187500 
	C882.343201,673.937866 883.990601,677.663391 884.801758,680.801025 
	C885.850098,684.855713 883.751831,688.107300 879.328308,688.665100 
	C873.759399,689.367432 868.131897,689.856567 862.524292,689.914429 
	C858.565430,689.955261 857.471436,691.584412 858.216187,695.101440 
	C858.524719,696.558594 858.857056,698.021545 859.328979,699.431458 
	C862.414795,708.650940 870.381897,710.616638 877.535400,703.958740 
	C879.159180,702.447449 880.817200,700.972961 883.406494,698.621460 
	C882.269348,707.938049 875.656738,711.506531 863.493164,710.986572 
	C853.620178,710.564575 846.440308,702.885071 846.001648,691.822754 
M858.468506,681.083191 
	C856.491516,686.628967 861.205627,686.224121 863.964111,686.667603 
	C867.596130,687.251648 871.508789,686.800537 872.817444,682.386169 
	C874.183350,677.778442 871.740295,672.695435 868.036316,671.615662 
	C864.893555,670.699463 860.972900,673.296021 859.385864,677.434875 
	C859.035889,678.347351 858.968994,679.368347 858.468506,681.083191 
z"/>
<path fill="#405410" opacity="1.000000" stroke="none" 
	d="
M769.975464,672.024841 
	C763.453674,674.782898 763.865234,678.637024 768.670349,681.954895 
	C772.193848,684.387756 776.242126,686.063721 780.068420,688.054138 
	C784.980957,690.609558 787.294373,694.558105 787.025513,700.166260 
	C786.731934,706.289978 782.669495,710.552063 775.594604,710.851807 
	C770.841492,711.053284 766.050659,710.230713 761.270386,709.992004 
	C759.593262,709.908264 757.897400,710.199402 755.126709,710.396423 
	C755.126709,706.467590 755.045471,702.282166 755.212952,698.106628 
	C755.238464,697.470154 756.415283,696.879822 757.059570,696.268127 
	C757.702515,697.068298 758.645996,697.771545 758.940430,698.684143 
	C761.141602,705.507141 763.887268,708.377258 769.430542,707.795288 
	C771.991760,707.526428 776.087219,705.556519 776.368774,703.844971 
	C776.757446,701.481750 774.827637,697.862427 772.755859,696.173340 
	C769.611694,693.610046 765.452087,692.317627 761.796570,690.350342 
	C756.469788,687.483643 754.285645,683.636414 755.086914,678.207214 
	C755.866028,672.927490 759.424561,669.916748 764.389893,669.213989 
	C768.714417,668.601868 773.180908,668.984253 777.584778,668.943787 
	C779.784302,668.923523 781.984314,668.940247 784.427979,668.940247 
	C784.427979,672.350220 784.427979,675.945679 784.427979,679.541077 
	C784.053284,679.867126 783.678589,680.193237 783.303894,680.519287 
	C780.573975,674.829407 777.349426,670.024597 769.975464,672.024841 
z"/>
<path fill="#405410" opacity="1.000000" stroke="none" 
	d="
M272.060394,710.000000 
	C268.532898,710.000000 265.492310,710.000000 262.451721,710.000000 
	C262.122162,709.499817 261.792572,708.999695 261.463013,708.499512 
	C270.835815,705.744934 267.543427,698.615784 267.951874,692.839417 
	C268.209808,689.191284 268.000397,685.510132 267.999908,681.843750 
	C267.999023,675.072205 267.998810,675.072205 262.398590,670.321533 
	C267.502075,670.321533 272.618195,670.147583 277.695068,670.515381 
	C278.427765,670.568481 278.971954,673.224792 279.748047,675.009094 
	C283.300598,671.345764 287.205200,668.298340 292.908691,668.952332 
	C296.110138,669.319458 298.860413,670.385132 298.726471,673.728516 
	C298.634735,676.018860 297.306000,679.330627 295.562012,680.166992 
	C293.982727,680.924438 290.501068,679.570496 288.897705,678.050781 
	C285.120483,674.470581 283.476593,674.358765 281.547791,679.076904 
	C278.169769,687.339966 278.851440,696.060181 279.283264,704.678650 
	C279.324677,705.504944 281.529663,706.460449 282.878723,706.922974 
	C284.527100,707.488159 286.332245,707.596008 288.069580,707.901672 
	C288.032623,708.601135 287.995636,709.300537 287.958649,710.000000 
	C282.821533,710.000000 277.684418,710.000000 272.060394,710.000000 
z"/>
<path fill="#405410" opacity="1.000000" stroke="none" 
	d="
M906.000244,697.780273 
	C906.005981,699.081116 905.738037,700.045532 906.066284,700.719360 
	C907.227966,703.103943 908.593506,705.389160 909.881714,707.712036 
	C911.764404,706.096680 913.666931,704.503601 915.522095,702.857178 
	C916.554321,701.941040 917.507385,700.935730 918.496094,699.970581 
	C918.595398,701.416016 919.175232,703.045105 918.705872,704.273132 
	C917.181885,708.260681 914.406677,710.887207 909.793579,710.995483 
	C904.650574,711.116211 899.533691,710.943909 897.226868,705.278320 
	C896.066772,702.429138 895.273071,699.274963 895.097961,696.213867 
	C894.766296,690.414673 894.860229,684.578552 895.049805,678.766663 
	C895.168152,675.139038 894.744934,672.439514 890.141357,672.837402 
	C889.555176,672.888000 888.898682,672.124939 887.653320,671.354370 
	C889.127258,670.732300 889.964844,670.057068 890.766907,670.096741 
	C894.036560,670.258606 895.068787,668.778137 895.066284,665.619751 
	C895.063049,661.485962 900.712036,657.671143 904.349976,659.410828 
	C905.334778,659.881714 906.058960,662.202881 905.891724,663.549194 
	C905.211304,669.028442 907.689941,670.602234 912.716553,670.069580 
	C914.655151,669.864197 916.676514,670.440002 918.660156,670.659851 
	C918.642395,671.323303 918.624695,671.986816 918.606934,672.650269 
	C915.839417,672.770508 913.064148,673.077209 910.306396,672.962708 
	C907.050171,672.827393 905.897339,674.172607 905.966248,677.363831 
	C906.109802,684.009888 906.003540,690.661377 906.000244,697.780273 
z"/>
<path fill="#C69B3C" opacity="1.000000" stroke="none" 
	d="
M457.915375,766.892212 
	C456.639740,765.921204 455.188568,764.920044 455.114502,763.825745 
	C454.834106,759.683777 455.044891,755.510986 454.985657,751.350891 
	C454.935608,747.835876 454.055206,744.522278 449.965393,744.093628 
	C445.751251,743.651917 442.879517,746.283325 442.164276,750.137695 
	C441.181122,755.435608 441.039124,760.889709 440.387512,767.876953 
	C438.908752,766.351624 437.163147,765.394409 437.132538,764.385132 
	C436.901062,756.751099 437.006073,749.106934 437.006073,740.411682 
	C439.032990,741.351013 440.402405,741.985657 442.274628,742.853271 
	C448.366821,738.419678 451.732758,738.671021 458.509399,744.784851 
	C464.672150,739.178711 467.451233,738.384644 472.230072,741.836426 
	C473.961517,743.086853 475.641663,745.538208 475.827759,747.579895 
	C476.324280,753.027039 476.135712,758.555603 475.885223,764.036499 
	C475.832397,765.192200 474.352081,766.282593 473.529510,767.403076 
	C473.019653,767.133423 472.509827,766.863770 472.000000,766.594116 
	C472.000000,761.801270 471.947906,757.007751 472.016174,752.215881 
	C472.072510,748.261230 472.164642,744.323914 466.723999,744.023926 
	C462.629791,743.798157 459.320618,747.445740 459.019409,752.504395 
	C458.735504,757.272034 458.582642,762.047424 457.915375,766.892212 
z"/>
<path fill="#C69B3C" opacity="1.000000" stroke="none" 
	d="
M726.153076,740.920410 
	C732.296936,739.133728 738.995605,741.194824 741.820435,745.548767 
	C745.138428,750.662842 744.360718,758.171875 741.125122,762.537659 
	C737.252991,767.762268 728.180542,768.643188 721.357849,764.707458 
	C721.018616,768.423096 720.708435,772.125916 720.223816,775.805908 
	C720.207520,775.929626 718.431274,775.821594 717.238159,775.821594 
	C717.238159,764.184753 717.238159,752.756775 717.238159,741.075806 
	C720.145325,740.757019 723.072815,744.034302 726.153076,740.920410 
M721.780579,749.693115 
	C721.520447,751.105408 721.156616,752.507690 721.019653,753.931885 
	C720.606201,758.229797 722.547424,761.113831 726.478210,762.780701 
	C730.733704,764.585327 734.218628,763.638550 737.328430,760.236755 
	C740.206970,757.088135 740.837402,753.804749 739.004211,749.941040 
	C735.288696,742.110291 728.024780,741.654846 721.780579,749.693115 
z"/>
<path fill="#C69B3C" opacity="1.000000" stroke="none" 
	d="
M331.263062,763.369385 
	C336.424164,752.661743 341.385132,742.286133 346.993378,730.556885 
	C352.975250,743.334045 358.390442,754.900818 363.817474,766.492859 
	C359.877228,768.050781 358.227356,766.121094 356.998901,762.954651 
	C355.841095,759.970215 355.932983,755.700134 350.934418,756.001953 
	C345.557220,756.326660 339.128448,753.825623 336.884766,762.012146 
	C336.095825,764.890747 334.917664,768.745239 330.024506,766.372498 
	C330.371307,765.480530 330.717133,764.591003 331.263062,763.369385 
M345.849823,750.999878 
	C347.486084,750.999878 349.122314,750.999878 351.755737,750.999878 
	C350.094238,747.486328 348.774475,744.695435 347.035156,741.017395 
	C345.156830,744.820923 343.752716,747.664062 342.187561,750.833374 
	C343.463776,750.907532 344.252747,750.953369 345.849823,750.999878 
z"/>
<path fill="#C69B3C" opacity="1.000000" stroke="none" 
	d="
M430.998871,744.348999 
	C430.999664,751.952759 430.999664,759.092285 430.999664,766.050903 
	C430.592468,766.437134 430.199585,766.833496 430.185089,766.820251 
	C426.106567,763.051880 422.159973,767.102966 418.147034,767.053467 
	C410.925995,766.964478 405.968140,764.516357 404.179932,759.251587 
	C401.851227,752.395630 403.442047,747.563599 408.187164,743.330994 
	C412.810272,739.207275 418.474487,738.856201 424.526306,742.225281 
	C425.230194,742.617004 425.853149,743.154053 425.896790,743.185059 
	C427.289551,742.309570 428.307220,741.669800 429.324921,741.030090 
	C429.882629,741.981689 430.440338,742.933228 430.998871,744.348999 
M415.302094,763.079468 
	C418.321655,762.101746 421.961029,761.871338 424.230286,759.989014 
	C428.790619,756.206299 427.573273,748.812134 422.517365,745.904968 
	C416.899658,742.674744 411.007721,744.155273 408.219360,749.497742 
	C405.576691,754.561035 408.269257,760.320679 415.302094,763.079468 
z"/>
<path fill="#C69B3C" opacity="1.000000" stroke="none" 
	d="
M541.000000,759.897095 
	C541.000000,750.470886 541.000000,741.532166 541.000000,732.028198 
	C546.446472,732.028198 551.556152,731.755249 556.620789,732.115601 
	C560.585815,732.397827 564.191467,737.320557 563.985413,741.298889 
	C563.717041,746.478394 559.928711,750.338867 554.217163,750.940430 
	C551.755981,751.199646 549.244812,750.983887 546.236633,750.983887 
	C546.236633,756.192932 546.236633,761.255920 546.236633,766.657776 
	C544.363831,766.795166 542.980957,766.896606 541.000000,767.041931 
	C541.000000,764.605408 541.000000,762.494934 541.000000,759.897095 
M557.205078,737.076294 
	C553.586914,736.614197 549.968750,736.152039 546.010315,735.646484 
	C546.010315,739.351318 545.996338,741.997375 546.020569,744.643127 
	C546.026367,745.277039 546.159546,745.909729 546.225525,746.469727 
	C555.529297,748.461426 561.967957,744.221680 557.205078,737.076294 
z"/>
<path fill="#C69B3C" opacity="1.000000" stroke="none" 
	d="
M702.985046,762.998657 
	C708.530701,758.205261 708.592407,757.991272 703.705933,753.251221 
	C701.115845,750.738708 698.189758,748.572632 695.599182,746.060547 
	C691.388489,741.977417 690.964294,737.180359 694.275879,733.481201 
	C697.400818,729.990540 704.161621,730.037048 708.065186,733.542175 
	C709.055115,734.431091 710.140198,735.213928 711.361023,736.188843 
	C709.945801,737.447266 709.002747,738.285889 707.980103,739.195251 
	C706.648804,738.060730 705.630737,736.490540 704.399109,736.299927 
	C702.284729,735.972595 700.037109,736.506592 697.845337,736.678955 
	C698.314819,739.007812 698.073059,741.932800 699.413269,743.531799 
	C701.663147,746.216064 704.918945,748.057678 707.753052,750.251709 
	C711.431152,753.098938 711.766113,757.227783 710.758484,761.046143 
	C709.631470,765.316956 705.776489,767.746033 701.582642,767.791260 
	C697.796997,767.832153 693.744751,766.838867 691.826294,762.563416 
	C691.437378,761.696716 690.643555,761.011719 689.868958,760.030884 
	C692.005676,757.652771 693.553711,758.140137 695.830078,760.110046 
	C697.612366,761.652344 700.321106,762.124146 702.985046,762.998657 
z"/>
<path fill="#C69B3C" opacity="1.000000" stroke="none" 
	d="
M771.163818,764.311890 
	C767.773254,765.391785 764.700317,766.567017 761.535217,766.923279 
	C754.786621,767.682922 750.593689,762.995728 749.091492,758.636841 
	C746.930237,752.365845 749.312561,745.593811 754.425476,742.240845 
	C759.613037,738.838928 766.157104,739.262085 770.797974,743.299500 
	C777.177185,748.849304 777.397766,755.977295 771.163818,764.311890 
M771.480286,755.014587 
	C770.885193,748.521973 767.676453,744.425232 762.857666,744.005676 
	C757.834351,743.568298 753.477783,747.365295 752.492126,753.039673 
	C751.705200,757.570007 755.744934,762.501587 761.105896,763.555054 
	C765.073608,764.334717 769.574829,760.781494 771.480286,755.014587 
z"/>
<path fill="#C69B3C" opacity="1.000000" stroke="none" 
	d="
M504.254028,742.615906 
	C506.534790,747.872742 508.612976,752.782654 511.149628,758.775696 
	C513.426331,753.499023 515.370789,749.368713 516.990662,745.114807 
	C518.212585,741.906067 519.841370,739.954651 523.486145,741.319336 
	C518.894409,752.098755 514.412842,762.931763 509.575134,773.603271 
	C508.930450,775.025330 506.479858,775.628723 504.005798,776.026367 
	C510.713806,767.265747 507.269501,759.498962 503.315399,751.675903 
	C501.707703,748.495117 500.454254,745.135193 498.453186,740.497864 
	C500.952148,741.288452 502.501801,741.778687 504.254028,742.615906 
z"/>
<path fill="#C69B3C" opacity="1.000000" stroke="none" 
	d="
M614.000000,761.830811 
	C613.925415,763.764282 613.850769,765.222290 613.776184,766.680298 
	C613.312073,766.930603 612.847961,767.180908 612.383850,767.431274 
	C611.590088,766.275146 610.142212,765.137451 610.109009,763.959900 
	C609.899170,756.503906 610.002502,749.039062 610.002502,742.159424 
	C614.085144,741.390442 617.741516,740.443665 621.456055,740.059204 
	C627.932068,739.389038 632.089111,743.474060 632.889893,751.695679 
	C633.367554,756.600098 632.977417,761.589111 632.977417,766.444397 
	C629.579285,767.773438 628.996094,766.364624 628.945374,763.622498 
	C628.857605,758.881714 628.487671,754.142090 628.110962,749.411865 
	C627.760986,745.017639 624.626221,742.830261 621.067322,744.271179 
	C618.218689,745.424500 615.439697,748.572449 614.254944,751.494141 
	C613.098267,754.346619 614.001221,758.034363 614.000000,761.830811 
z"/>
<path fill="#C69B3C" opacity="1.000000" stroke="none" 
	d="
M661.999146,767.000000 
	C654.865784,767.827576 649.062622,764.103577 647.179871,755.409912 
	C646.145081,750.631714 649.790527,744.073303 654.744995,741.723145 
	C662.130249,738.219971 669.008667,739.738708 674.021057,746.118164 
	C672.270935,748.999756 670.714722,747.948792 668.613892,746.224243 
	C663.211792,741.789673 654.628418,743.931946 652.035950,750.154541 
	C650.223999,754.503540 651.771973,758.196777 654.793762,761.155762 
	C658.060852,764.355103 664.164551,764.225464 668.162842,761.425293 
	C669.928833,760.188477 671.615234,757.704712 674.041870,761.027283 
	C671.585205,765.670776 667.621887,767.455078 661.999146,767.000000 
z"/>
<path fill="#C69B3C" opacity="1.000000" stroke="none" 
	d="
M595.373291,740.176880 
	C598.653503,741.893982 601.533691,743.485474 604.569092,745.162720 
	C602.188232,749.151245 600.529968,747.946411 598.576477,746.150208 
	C594.686401,742.573242 590.130859,743.474121 586.190552,745.557861 
	C582.582275,747.465820 581.187866,751.315613 582.070129,755.403931 
	C583.407288,761.600403 590.771851,766.894104 598.976868,761.397156 
	C600.597656,760.311340 602.011719,758.263000 603.553284,760.656738 
	C603.955994,761.282043 602.192749,764.070984 600.832825,764.930176 
	C594.825623,768.725952 586.545044,767.608704 581.722412,763.352661 
	C577.099915,759.273315 577.169922,754.152588 578.489807,749.255188 
	C580.018066,743.584290 584.638611,740.674622 590.484985,740.030273 
	C591.962402,739.867432 593.476135,740.035278 595.373291,740.176880 
z"/>
<path fill="#C69B3C" opacity="1.000000" stroke="none" 
	d="
M390.136505,750.000366 
	C386.960938,749.606323 385.736908,750.520691 385.944458,753.491455 
	C386.186890,756.962158 386.200439,760.481079 385.888885,763.940857 
	C385.778809,765.162842 384.418335,766.272339 383.628754,767.433167 
	C383.172729,767.179565 382.716675,766.925964 382.260620,766.672363 
	C382.260620,755.296082 382.260620,743.919739 382.260620,732.271118 
	C388.000031,732.271118 393.583252,732.271118 399.190491,732.271118 
	C400.072754,735.979858 400.072754,735.983643 395.062622,735.998474 
	C392.261627,736.006714 389.460571,735.999939 386.331238,735.999939 
	C386.331238,739.337463 386.331238,742.382874 386.331238,745.800781 
	C390.628601,745.800781 394.887421,745.800781 399.202362,745.800781 
	C400.478821,748.528198 400.504211,750.144165 397.085815,750.012878 
	C394.929993,749.930054 392.768311,749.999084 390.136505,750.000366 
z"/>
<path fill="#C69B3C" opacity="1.000000" stroke="none" 
	d="
M783.943848,745.437073 
	C783.722290,744.712402 783.601074,744.319946 783.349426,744.198975 
	C781.944519,743.523743 780.508057,742.914246 779.082397,742.282288 
	C780.571106,741.627197 782.059814,740.972046 783.451172,740.359802 
	C785.903748,737.839294 780.846619,732.141846 787.783264,730.763123 
	C787.783264,734.222046 787.783264,737.161377 787.783264,739.974976 
	C789.836548,740.856262 791.553650,741.593201 793.270752,742.330139 
	C793.141968,742.751404 793.013123,743.172668 792.884338,743.593933 
	C791.462646,743.805298 790.041016,744.016663 788.571045,744.235229 
	C788.026367,751.751038 787.484314,759.318359 786.830933,766.876038 
	C786.824951,766.944763 785.328003,766.884583 783.983948,766.884583 
	C783.983948,759.759155 783.983948,752.826904 783.943848,745.437073 
z"/>
<path fill="#C69B3C" opacity="1.000000" stroke="none" 
	d="
M495.937439,732.424316 
	C495.982544,743.980103 495.982544,755.069946 495.982544,766.311890 
	C493.456543,767.478821 491.953644,767.476929 491.976318,764.085205 
	C492.048248,753.328979 492.002899,742.572021 492.002899,730.919189 
	C493.545898,731.331421 494.719116,731.644836 495.937439,732.424316 
z"/>
<path fill="#C69B3C" opacity="1.000000" stroke="none" 
	d="
M482.001770,763.709595 
	C482.001282,756.790771 481.879639,750.342163 482.116852,743.906860 
	C482.159088,742.761414 483.691315,741.670959 484.535522,740.555115 
	C484.947601,740.845093 485.359650,741.135071 485.771729,741.424988 
	C485.771729,749.783936 485.771729,758.142822 485.771729,766.501709 
	C485.376434,766.791321 484.981140,767.080872 484.585815,767.370483 
	C483.724884,766.308472 482.863953,765.246399 482.001770,763.709595 
z"/>
<path fill="#C69B3C" opacity="1.000000" stroke="none" 
	d="
M569.001648,744.293335 
	C569.875122,742.739075 570.747314,741.656311 571.619568,740.573608 
	C572.010315,740.879333 572.401001,741.185059 572.791748,741.490784 
	C572.791748,749.713074 572.791748,757.935303 572.791748,766.395203 
	C570.470215,767.472290 568.930969,767.502502 568.977356,764.099609 
	C569.065125,757.655762 569.001282,751.209839 569.001648,744.293335 
z"/>
<path fill="#C69B3C" opacity="1.000000" stroke="none" 
	d="
M639.000000,758.918213 
	C639.000977,753.600098 638.841431,748.758789 639.118164,743.942566 
	C639.185425,742.772461 640.688782,741.684998 641.531738,740.559570 
	C641.946655,740.851929 642.361511,741.144287 642.776367,741.436584 
	C642.776367,749.716675 642.776367,757.996765 642.776367,766.276794 
	C642.475952,766.624939 642.175537,766.973083 641.875183,767.321228 
	C640.918884,766.348511 639.490967,765.525269 639.123413,764.365906 
	C638.643250,762.851196 639.002075,761.070557 639.000000,758.918213 
z"/>
<path fill="#C69B3C" opacity="1.000000" stroke="none" 
	d="
M638.257324,735.741455 
	C638.297729,733.849792 638.397461,732.128174 639.083252,730.685120 
	C639.234009,730.368164 641.880920,730.628601 642.626587,731.374573 
	C643.372070,732.120300 643.631104,734.767334 643.313843,734.917908 
	C641.870605,735.603149 640.148865,735.702026 638.257324,735.741455 
z"/>
<path fill="#C69B3C" opacity="1.000000" stroke="none" 
	d="
M571.587219,736.734924 
	C569.850708,735.686768 568.448486,734.453613 567.046265,733.220459 
	C567.982422,732.171143 568.790588,730.477112 569.891663,730.258667 
	C570.939148,730.050720 573.199402,731.259521 573.310486,732.067566 
	C573.503418,733.471558 572.451477,735.046631 571.587219,736.734924 
z"/>
<path fill="#C69B3C" opacity="1.000000" stroke="none" 
	d="
M486.953796,732.299500 
	C486.187622,734.050781 485.624390,735.705444 484.471100,736.595703 
	C484.026245,736.939209 481.639832,735.809082 481.231659,734.873230 
	C480.802216,733.888733 481.532410,731.288635 482.015289,731.219971 
	C483.586761,730.996704 485.276794,731.607788 486.953796,732.299500 
z"/>
<path fill="#415510" opacity="1.000000" stroke="none" 
	d="
M638.406494,324.619202 
	C616.285645,312.687592 593.283997,306.609467 568.231018,306.820709 
	C509.259186,307.318024 466.729218,334.445282 438.436371,385.159637 
	C429.581635,401.031525 425.129730,418.473938 423.099030,436.536346 
	C414.791016,510.433899 467.192474,583.120605 546.218750,595.120300 
	C611.605469,605.048828 671.469788,568.203857 696.497070,518.222412 
	C697.780273,515.659851 699.339661,514.485291 702.259644,514.555603 
	C708.894714,514.715393 715.536194,514.605957 723.332520,514.605957 
	C714.458801,536.712891 701.903687,555.141663 685.653015,571.142517 
	C654.592834,601.725342 616.916199,618.445740 573.717346,619.704163 
	C481.517090,622.390137 409.194916,554.368652 400.138885,468.582458 
	C390.948120,381.520325 451.489014,299.789001 540.372925,285.390747 
	C622.151001,272.143555 696.648132,319.639404 722.821960,388.046448 
	C714.989929,388.046448 707.424683,388.215515 699.882446,387.875946 
	C698.659729,387.820862 697.206726,385.686371 696.420044,384.213898 
	C682.878479,358.868530 663.728577,339.001587 638.406494,324.619202 
z"/>
<path fill="#405410" opacity="1.000000" stroke="none" 
	d="
M574.742493,530.503540 
	C570.677368,528.127136 566.896423,526.020142 563.254211,523.695801 
	C546.844238,513.223328 529.702393,513.324402 512.188904,520.263184 
	C494.625854,527.221619 477.671906,529.427490 461.212982,516.918335 
	C456.081726,513.018494 449.577728,510.924652 443.473145,507.890228 
	C444.443451,507.090515 445.495514,506.081329 446.681335,505.266785 
	C480.741974,481.870209 515.266602,459.210144 551.985840,440.124329 
	C566.617798,432.518921 581.442383,425.183929 597.730408,421.782288 
	C602.536987,420.778473 607.749329,420.575500 612.586548,421.288788 
	C615.486633,421.716461 619.018555,424.011658 620.567322,426.517578 
	C640.092468,458.111633 664.313538,486.079498 687.892334,514.551392 
	C693.493347,521.314697 693.804810,518.997803 688.735840,527.565613 
	C687.888855,528.997192 686.910278,530.351562 685.979187,531.732605 
	C680.300903,540.155029 679.900330,540.558228 671.384216,534.615540 
	C660.240234,526.839233 648.410706,521.395691 634.629089,522.996216 
	C627.490967,523.825256 620.301453,525.754333 613.596741,528.369568 
	C605.777222,531.419617 598.137451,534.810547 589.595764,533.883728 
	C584.702148,533.352783 579.921875,531.777832 574.742493,530.503540 
z"/>
<path fill="#415410" opacity="1.000000" stroke="none" 
	d="
M541.289124,443.327209 
	C507.022339,462.078125 474.716003,483.249908 442.947815,505.274841 
	C436.850494,509.502136 436.553375,509.430939 433.961609,502.646912 
	C427.615204,486.035400 424.446655,468.818176 423.963959,451.058960 
	C423.880096,447.975037 424.777222,446.020752 427.327332,444.003571 
	C446.782532,428.614197 466.259186,413.238342 485.293182,397.336426 
	C493.188690,390.740082 501.788666,390.229370 511.065918,391.422668 
	C513.349121,391.716370 515.613525,392.498138 517.775146,393.341125 
	C537.468201,401.020905 552.913269,414.571808 568.152344,429.508698 
	C558.950256,434.238373 550.281311,438.694061 541.289124,443.327209 
z"/>
<path fill="#000000" opacity="1.000000" stroke="none" 
	d="
M447.175293,527.932983 
	C445.411957,524.865234 443.648590,521.797546 441.720764,518.443665 
	C448.242981,516.921570 452.811920,520.616760 456.823029,523.640381 
	C469.020996,532.835144 482.720673,535.372864 497.309753,533.827087 
	C502.668121,533.259338 508.190704,531.385620 512.985291,528.865234 
	C530.341187,519.741760 546.416870,521.987671 562.212341,532.658630 
	C579.024597,544.016418 596.943359,545.144043 615.090759,536.342163 
	C632.290771,527.999756 648.470093,528.962891 664.197754,539.695923 
	C667.288574,541.805237 670.521179,543.706848 674.197693,546.025391 
	C672.772095,547.553589 671.248413,549.186768 669.122314,550.824585 
	C651.050720,538.536804 632.472900,537.330933 613.482056,546.363892 
	C597.276733,554.071960 581.802673,554.154907 566.905151,543.894836 
	C547.684326,530.657288 527.873535,529.785583 507.382477,540.333130 
	C498.467712,544.921936 488.950348,545.349609 479.763519,543.083740 
	C473.054871,541.429138 467.048889,537.044800 460.603363,534.159546 
	C456.685242,532.405640 452.526917,531.188354 448.476471,529.729980 
	C448.476471,529.729980 448.381775,529.609619 448.442383,529.250366 
	C448.060425,528.571716 447.617859,528.252319 447.175293,527.932983 
z"/>
<path fill="#405410" opacity="1.000000" stroke="none" 
	d="
M448.482910,530.061096 
	C452.526917,531.188354 456.685242,532.405640 460.603363,534.159546 
	C467.048889,537.044800 473.054871,541.429138 479.763519,543.083740 
	C488.950348,545.349609 498.467712,544.921936 507.382477,540.333130 
	C527.873535,529.785583 547.684326,530.657288 566.905151,543.894836 
	C581.802673,554.154907 597.276733,554.071960 613.482056,546.363892 
	C632.472900,537.330933 651.050720,538.536804 668.832581,550.998596 
	C667.346619,553.083130 665.547974,554.998291 663.094177,556.850037 
	C647.974915,548.031494 633.111511,546.075012 617.480896,553.760559 
	C597.867676,563.404358 578.932007,562.611816 560.569336,550.135864 
	C545.967224,540.214905 530.543213,538.863098 514.429321,546.761536 
	C498.124115,554.753662 481.653717,555.299133 465.152649,547.116272 
	C463.876495,546.483459 462.333588,546.388550 460.914642,546.043640 
	C460.914642,546.043640 460.976349,546.022827 461.036499,545.743103 
	C460.724854,544.982910 460.353027,544.502380 459.981201,544.021851 
	C456.150604,539.478638 452.319977,534.935425 448.482910,530.061096 
z"/>
<path fill="#000000" opacity="1.000000" stroke="none" 
	d="
M461.049347,546.351685 
	C462.333588,546.388550 463.876495,546.483459 465.152649,547.116272 
	C481.653717,555.299133 498.124115,554.753662 514.429321,546.761536 
	C530.543213,538.863098 545.967224,540.214905 560.569336,550.135864 
	C578.932007,562.611816 597.867676,563.404358 617.480896,553.760559 
	C633.111511,546.075012 647.974915,548.031494 662.767578,556.929688 
	C661.288086,558.653564 659.480042,560.234314 656.969360,561.915894 
	C641.066711,557.615356 626.349854,557.727722 611.884766,565.318481 
	C607.044495,567.858398 601.290466,569.124634 595.804199,569.871277 
	C583.448303,571.552856 572.908936,566.696655 562.777039,560.005310 
	C547.884094,550.169617 531.676331,549.050720 515.264771,555.472778 
	C504.108795,559.838440 493.388885,565.283691 480.851501,562.141663 
	C480.130615,561.961060 479.246124,562.433411 478.437775,562.601807 
	C472.686523,557.287842 466.935272,551.973816 461.049347,546.351685 
z"/>
<path fill="#405410" opacity="1.000000" stroke="none" 
	d="
M478.569977,562.911865 
	C479.246124,562.433411 480.130615,561.961060 480.851501,562.141663 
	C493.388885,565.283691 504.108795,559.838440 515.264771,555.472778 
	C531.676331,549.050720 547.884094,550.169617 562.777039,560.005310 
	C572.908936,566.696655 583.448303,571.552856 595.804199,569.871277 
	C601.290466,569.124634 607.044495,567.858398 611.884766,565.318481 
	C626.349854,557.727722 641.066711,557.615356 656.669495,562.068787 
	C654.278809,564.380920 651.485535,566.640930 647.980042,568.806519 
	C636.916870,566.210754 626.967651,567.242615 617.517639,572.228333 
	C609.311646,576.557800 600.576111,579.087708 591.329285,578.863831 
	C578.908752,578.563171 568.019653,573.849365 557.672729,566.995728 
	C544.739990,558.429382 530.785767,557.548645 516.592834,564.187073 
	C508.452728,567.994446 500.296448,571.650391 490.984802,571.036133 
	C486.890594,568.431396 482.796387,565.826660 478.569977,562.911865 
z"/>
<path fill="#000000" opacity="1.000000" stroke="none" 
	d="
M491.104858,571.362854 
	C500.296448,571.650391 508.452728,567.994446 516.592834,564.187073 
	C530.785767,557.548645 544.739990,558.429382 557.672729,566.995728 
	C568.019653,573.849365 578.908752,578.563171 591.329285,578.863831 
	C600.576111,579.087708 609.311646,576.557800 617.517639,572.228333 
	C626.967651,567.242615 636.916870,566.210754 647.640869,568.876953 
	C643.277466,571.963684 638.540955,574.885376 633.076111,577.950317 
	C627.233215,579.229370 621.580933,579.336304 617.097290,581.679443 
	C597.878174,591.723328 579.864868,591.253113 562.265991,577.952454 
	C554.495117,572.079468 545.028137,570.462524 535.493408,570.055542 
	C524.022766,569.566040 513.727173,573.552124 503.939087,579.119934 
	C499.701050,576.643127 495.462982,574.166321 491.104858,571.362854 
z"/>
<path fill="#415510" opacity="1.000000" stroke="none" 
	d="
M504.158020,579.383118 
	C513.727173,573.552124 524.022766,569.566040 535.493408,570.055542 
	C545.028137,570.462524 554.495117,572.079468 562.265991,577.952454 
	C579.864868,591.253113 597.878174,591.723328 617.097290,581.679443 
	C621.580933,579.336304 627.233215,579.229370 632.797607,578.161865 
	C614.403503,588.431946 594.351624,593.992249 572.166321,593.645813 
	C566.930420,590.640503 562.300110,588.052185 557.826965,585.215942 
	C551.512390,581.212097 544.754456,579.340332 537.232178,578.835266 
	C528.815918,578.270142 521.255188,580.942688 513.474182,583.088745 
	C510.441772,581.941223 507.409363,580.793762 504.158020,579.383118 
z"/>
<path fill="#000000" opacity="1.000000" stroke="none" 
	d="
M513.725891,583.388062 
	C521.255188,580.942688 528.815918,578.270142 537.232178,578.835266 
	C544.754456,579.340332 551.512390,581.212097 557.826965,585.215942 
	C562.300110,588.052185 566.930420,590.640503 571.700989,593.598145 
	C551.787781,595.094910 532.644531,590.748108 513.725891,583.388062 
z"/>
<path fill="#405410" opacity="1.000000" stroke="none" 
	d="
M447.199860,528.196045 
	C447.617859,528.252319 448.060425,528.571716 448.438721,529.173828 
	C447.991089,529.124146 447.607758,528.791626 447.199860,528.196045 
z"/>
<path fill="#000000" opacity="1.000000" stroke="none" 
	d="
M459.997681,544.335022 
	C460.353027,544.502380 460.724854,544.982910 461.025330,545.773682 
	C460.640686,545.605408 460.327423,545.126770 459.997681,544.335022 
z"/>
<path fill="#000000" opacity="1.000000" stroke="none" 
	d="
M508.441467,704.671692 
	C506.154053,699.994263 502.842499,695.618347 502.510559,691.027100 
	C501.946411,683.224060 502.455292,675.123962 503.998230,667.447083 
	C505.689423,659.033020 510.497223,655.896851 517.926025,656.007202 
	C524.567749,656.105774 529.861084,660.088013 531.574951,667.626038 
	C533.754517,677.212463 534.225281,686.986145 531.206116,696.580688 
	C527.681885,707.780457 518.726562,711.053223 508.441467,704.671692 
z"/>
<path fill="#000000" opacity="1.000000" stroke="none" 
	d="
M622.000793,675.826172 
	C622.000305,671.527588 621.994263,667.705139 622.001587,663.882629 
	C622.013733,657.502380 626.821655,654.629883 632.677185,657.499023 
	C637.102722,659.667419 639.305420,666.747009 637.805542,673.981506 
	C636.732117,679.159058 633.612000,681.522583 627.950012,682.028931 
	C623.523193,682.424683 621.250916,681.055054 622.000793,675.826172 
z"/>
<path fill="#000000" opacity="1.000000" stroke="none" 
	d="
M673.697266,705.657776 
	C671.374451,705.370605 667.784668,705.177490 667.647034,704.385010 
	C667.067627,701.047791 666.277893,696.643555 667.936096,694.326721 
	C669.648682,691.933960 674.107544,691.506714 677.364990,690.219604 
	C677.871948,692.956360 679.216492,695.881836 678.654419,698.377808 
	C678.072632,700.960876 675.640747,703.127380 673.697266,705.657776 
z"/>
<path fill="#000000" opacity="1.000000" stroke="none" 
	d="
M332.709198,696.347961 
	C332.315796,698.234436 332.286133,699.802307 331.713623,701.137451 
	C330.170685,704.735718 328.217224,707.956970 323.559235,707.998596 
	C318.886230,708.040283 315.882324,704.902466 315.506378,701.247070 
	C314.737976,693.776428 314.822449,686.127014 315.495789,678.635620 
	C315.861145,674.570862 318.905914,671.072021 323.591980,671.307800 
	C328.169922,671.538147 331.431458,674.372131 331.936279,679.102783 
	C332.531158,684.677734 332.554321,690.313721 332.709198,696.347961 
z"/>
<path fill="#000000" opacity="1.000000" stroke="none" 
	d="
M858.620117,680.711304 
	C858.968994,679.368347 859.035889,678.347351 859.385864,677.434875 
	C860.972900,673.296021 864.893555,670.699463 868.036316,671.615662 
	C871.740295,672.695435 874.183350,677.778442 872.817444,682.386169 
	C871.508789,686.800537 867.596130,687.251648 863.964111,686.667603 
	C861.205627,686.224121 856.491516,686.628967 858.620117,680.711304 
z"/>
<path fill="#000000" opacity="1.000000" stroke="none" 
	d="
M721.900391,749.307007 
	C728.024780,741.654846 735.288696,742.110291 739.004211,749.941040 
	C740.837402,753.804749 740.206970,757.088135 737.328430,760.236755 
	C734.218628,763.638550 730.733704,764.585327 726.478210,762.780701 
	C722.547424,761.113831 720.606201,758.229797 721.019653,753.931885 
	C721.156616,752.507690 721.520447,751.105408 721.900391,749.307007 
z"/>
<path fill="#000000" opacity="1.000000" stroke="none" 
	d="
M345.445801,750.999512 
	C344.252747,750.953369 343.463776,750.907532 342.187561,750.833374 
	C343.752716,747.664062 345.156830,744.820923 347.035156,741.017395 
	C348.774475,744.695435 350.094238,747.486328 351.755737,750.999878 
	C349.122314,750.999878 347.486084,750.999878 345.445801,750.999512 
z"/>
<path fill="#000000" opacity="1.000000" stroke="none" 
	d="
M414.917053,763.040344 
	C408.269257,760.320679 405.576691,754.561035 408.219360,749.497742 
	C411.007721,744.155273 416.899658,742.674744 422.517365,745.904968 
	C427.573273,748.812134 428.790619,756.206299 424.230286,759.989014 
	C421.961029,761.871338 418.321655,762.101746 414.917053,763.040344 
z"/>
<path fill="#000000" opacity="1.000000" stroke="none" 
	d="
M557.535034,737.337280 
	C561.967957,744.221680 555.529297,748.461426 546.225525,746.469727 
	C546.159546,745.909729 546.026367,745.277039 546.020569,744.643127 
	C545.996338,741.997375 546.010315,739.351318 546.010315,735.646484 
	C549.968750,736.152039 553.586914,736.614197 557.535034,737.337280 
z"/>
<path fill="#000000" opacity="1.000000" stroke="none" 
	d="
M771.281616,755.346924 
	C769.574829,760.781494 765.073608,764.334717 761.105896,763.555054 
	C755.744934,762.501587 751.705200,757.570007 752.492126,753.039673 
	C753.477783,747.365295 757.834351,743.568298 762.857666,744.005676 
	C767.676453,744.425232 770.885193,748.521973 771.281616,755.346924 
z"/>
</svg>